<svg xmlns="http://www.w3.org/2000/svg" xmlns:xlink="http://www.w3.org/1999/xlink" width="338" zoomAndPan="magnify" viewBox="0 0 253.5 237" height="316" preserveAspectRatio="xMidYMid meet" version="1.0"><defs><clipPath id="75d265e0ea"><path d="M 124 105 L 229 105 L 229 171 L 124 171 Z M 124 105 " clip-rule="nonzero"/></clipPath><clipPath id="f73655990d"><path d="M 91.113281 15.675781 L 235.171875 106.40625 L 162.429688 221.90625 L 18.371094 131.179688 Z M 91.113281 15.675781 " clip-rule="nonzero"/></clipPath><clipPath id="89a0716689"><path d="M 91.113281 15.675781 L 235.171875 106.40625 L 162.429688 221.90625 L 18.371094 131.179688 Z M 91.113281 15.675781 " clip-rule="nonzero"/></clipPath><clipPath id="3d475bda15"><path d="M 76 74 L 127 74 L 127 163 L 76 163 Z M 76 74 " clip-rule="nonzero"/></clipPath><clipPath id="a7b83ee712"><path d="M 91.113281 15.675781 L 235.171875 106.40625 L 162.429688 221.90625 L 18.371094 131.179688 Z M 91.113281 15.675781 " clip-rule="nonzero"/></clipPath><clipPath id="7bb34ca73a"><path d="M 91.113281 15.675781 L 235.171875 106.40625 L 162.429688 221.90625 L 18.371094 131.179688 Z M 91.113281 15.675781 " clip-rule="nonzero"/></clipPath><clipPath id="19ed1e6f74"><path d="M 47 73 L 98 73 L 98 162 L 47 162 Z M 47 73 " clip-rule="nonzero"/></clipPath><clipPath id="6d87b56841"><path d="M 91.113281 15.675781 L 235.171875 106.40625 L 162.429688 221.90625 L 18.371094 131.179688 Z M 91.113281 15.675781 " clip-rule="nonzero"/></clipPath><clipPath id="4e0d0356d5"><path d="M 91.113281 15.675781 L 235.171875 106.40625 L 162.429688 221.90625 L 18.371094 131.179688 Z M 91.113281 15.675781 " clip-rule="nonzero"/></clipPath><clipPath id="8aa09c2bcb"><path d="M 36 100 L 83 100 L 83 136 L 36 136 Z M 36 100 " clip-rule="nonzero"/></clipPath><clipPath id="dfe361bfc1"><path d="M 91.113281 15.675781 L 235.171875 106.40625 L 162.429688 221.90625 L 18.371094 131.179688 Z M 91.113281 15.675781 " clip-rule="nonzero"/></clipPath><clipPath id="76cdc4f20e"><path d="M 91.113281 15.675781 L 235.171875 106.40625 L 162.429688 221.90625 L 18.371094 131.179688 Z M 91.113281 15.675781 " clip-rule="nonzero"/></clipPath><clipPath id="cbb37afcda"><path d="M 33 72 L 230 72 L 230 172 L 33 172 Z M 33 72 " clip-rule="nonzero"/></clipPath><clipPath id="4e9f87e612"><path d="M 91.113281 15.675781 L 235.171875 106.40625 L 162.429688 221.90625 L 18.371094 131.179688 Z M 91.113281 15.675781 " clip-rule="nonzero"/></clipPath><clipPath id="bafb8737f8"><path d="M 91.113281 15.675781 L 235.171875 106.40625 L 162.429688 221.90625 L 18.371094 131.179688 Z M 91.113281 15.675781 " clip-rule="nonzero"/></clipPath><clipPath id="36cf07c8a8"><path d="M 77 74 L 126 74 L 126 163 L 77 163 Z M 77 74 " clip-rule="nonzero"/></clipPath><clipPath id="94b9d935ea"><path d="M 91.113281 15.675781 L 235.171875 106.40625 L 162.429688 221.90625 L 18.371094 131.179688 Z M 91.113281 15.675781 " clip-rule="nonzero"/></clipPath><clipPath id="8d6cd0c55c"><path d="M 91.113281 15.675781 L 235.171875 106.40625 L 162.429688 221.90625 L 18.371094 131.179688 Z M 91.113281 15.675781 " clip-rule="nonzero"/></clipPath></defs><g clip-path="url(#75d265e0ea)"><g clip-path="url(#f73655990d)"><g clip-path="url(#89a0716689)"><path fill="#5284ff" d="M 201.53125 135.941406 C 199.058594 131.25 199.277344 125.796875 202.105469 121.304688 C 204.933594 116.8125 209.785156 114.28125 215.058594 114.464844 L 226.132812 114.886719 C 226.605469 114.902344 227.039062 114.851562 227.429688 114.738281 C 228.238281 111.988281 228.265625 108.75 227.449219 106.027344 C 227.136719 105.949219 226.804688 105.902344 226.453125 105.882812 L 215.382812 105.460938 C 206.820312 105.136719 199 109.257812 194.449219 116.480469 C 189.898438 123.707031 189.558594 132.542969 193.550781 140.121094 C 196.023438 144.816406 195.808594 150.269531 192.976562 154.757812 C 190.148438 159.25 185.296875 161.78125 180.027344 161.597656 C 174.800781 161.402344 170.050781 158.414062 167.617188 153.785156 C 159 137.460938 143.53125 125.949219 125.808594 122.105469 L 125.601562 129.011719 L 124.351562 130.996094 C 139.324219 134.355469 152.378906 144.144531 159.636719 157.964844 C 163.550781 165.414062 171.234375 170.257812 179.644531 170.566406 C 188.207031 170.890625 196.027344 166.769531 200.578125 159.546875 C 205.207031 152.328125 205.542969 143.492188 201.53125 135.941406 Z M 201.53125 135.941406 " fill-opacity="1" fill-rule="nonzero"/></g></g></g><g clip-path="url(#3d475bda15)"><g clip-path="url(#a7b83ee712)"><g clip-path="url(#7bb34ca73a)"><path fill="#9fcdff" d="M 126.027344 113.074219 L 106.011719 75.140625 L 77.910156 74.046875 L 97.910156 112.011719 L 97.25 128.125 L 76.492188 161.085938 L 104.789062 162.183594 L 125.550781 129.21875 Z M 126.027344 113.074219 " fill-opacity="1" fill-rule="nonzero"/></g></g></g><g clip-path="url(#19ed1e6f74)"><g clip-path="url(#6d87b56841)"><g clip-path="url(#4e0d0356d5)"><path fill="#5284ff" d="M 97.878906 111.996094 L 77.863281 74.058594 L 68.6875 73.625 L 53.75 97.347656 L 70.625 98.003906 L 72.191406 100.238281 L 63.199219 114.519531 L 47.542969 113.90625 L 47.214844 122.785156 L 47.78125 123.867188 L 48.199219 123.203125 C 49.976562 120.382812 53.660156 118.238281 56.597656 118.363281 L 81.957031 119.335938 L 83.527344 121.570312 L 74.53125 135.847656 L 53.652344 135.042969 L 67.214844 160.75 L 76.40625 161.15625 L 97.332031 127.933594 Z M 97.878906 111.996094 " fill-opacity="1" fill-rule="nonzero"/></g></g></g><g clip-path="url(#8aa09c2bcb)"><g clip-path="url(#dfe361bfc1)"><g clip-path="url(#76cdc4f20e)"><path fill="#5284ff" d="M 62.753906 113.753906 L 38.6875 112.832031 C 36.050781 112.742188 35.210938 110.5625 36.84375 107.972656 L 39.019531 104.515625 C 40.652344 101.925781 44.121094 99.929688 46.757812 100.023438 L 70.824219 100.945312 Z M 82.144531 122.230469 L 58.082031 121.304688 C 55.445312 121.214844 51.976562 123.210938 50.34375 125.800781 L 48.167969 129.257812 C 46.535156 131.847656 47.375 134.023438 50.011719 134.117188 L 74.078125 135.039062 Z M 82.144531 122.230469 " fill-opacity="1" fill-rule="nonzero"/></g></g></g><g clip-path="url(#cbb37afcda)"><g clip-path="url(#4e9f87e612)"><g clip-path="url(#bafb8737f8)"><path fill="#ffffff" d="M 202.210938 135.566406 C 199.867188 131.113281 200.074219 125.9375 202.757812 121.675781 C 205.441406 117.414062 210.023438 114.992188 215.046875 115.183594 L 215.992188 115.214844 C 216.234375 116.171875 216.570312 117.105469 217.027344 117.914062 C 217.722656 119.238281 218.617188 120.242188 219.652344 120.898438 C 222.300781 122.566406 225.425781 121.558594 227.441406 118.363281 C 230.03125 114.246094 230.285156 107.652344 227.992188 103.3125 C 227.308594 102.035156 226.414062 101.03125 225.378906 100.378906 C 222.730469 98.710938 219.601562 99.714844 217.589844 102.910156 C 217.226562 103.488281 216.921875 104.097656 216.675781 104.746094 L 215.457031 104.703125 C 206.621094 104.367188 198.558594 108.617188 193.863281 116.074219 C 189.164062 123.527344 188.816406 132.636719 192.9375 140.460938 C 195.28125 144.910156 195.074219 150.089844 192.390625 154.347656 C 189.707031 158.609375 185.128906 161.03125 180.101562 160.839844 C 175.148438 160.660156 170.628906 157.8125 168.324219 153.425781 C 159.699219 137.054688 144.265625 125.488281 126.527344 121.472656 L 126.777344 112.90625 L 106.484375 74.390625 L 68.289062 72.851562 L 52.878906 97.324219 L 45.234375 97.011719 C 42.277344 96.917969 38.59375 99.0625 36.820312 101.882812 L 34.644531 105.339844 C 33.644531 106.921875 33.414062 108.503906 34.027344 109.695312 C 34.078125 109.808594 34.148438 109.890625 34.226562 110.023438 L 35.734375 112.097656 C 35.785156 112.210938 35.851562 112.292969 35.949219 112.394531 L 35.988281 112.457031 C 36.183594 112.660156 36.375 112.863281 36.636719 113.027344 C 37.183594 113.371094 37.867188 113.5625 38.691406 113.597656 L 47.628906 113.960938 L 46.777344 113.90625 L 46.445312 122.984375 L 47.3125 124.617188 L 46.003906 126.6875 C 45.007812 128.273438 44.777344 129.855469 45.390625 131.046875 C 45.441406 131.15625 45.511719 131.242188 45.589844 131.371094 L 47.097656 133.445312 C 47.148438 133.558594 47.214844 133.640625 47.3125 133.742188 L 47.351562 133.808594 C 47.546875 134.011719 47.738281 134.214844 48 134.375 C 48.546875 134.722656 49.230469 134.910156 50.050781 134.945312 L 52.839844 135.054688 L 66.800781 161.535156 L 105.285156 163.058594 L 124.867188 131.964844 C 139.40625 135.375 152.070312 144.957031 159.148438 158.421875 C 163.191406 166.113281 171.105469 171.097656 179.789062 171.421875 C 188.625 171.757812 196.6875 167.507812 201.386719 160.054688 C 205.984375 152.496094 206.332031 143.386719 202.210938 135.566406 Z M 105.558594 75.859375 L 124.761719 112.277344 L 98.378906 111.265625 L 79.179688 74.84375 Z M 38.714844 112.085938 C 38.09375 112.054688 37.265625 111.898438 36.9375 111.207031 C 36.5625 110.527344 36.789062 109.464844 37.496094 108.34375 L 39.671875 104.886719 C 41.140625 102.554688 44.386719 100.660156 46.746094 100.738281 L 69.519531 101.609375 L 62.355469 112.984375 Z M 50.039062 133.371094 C 49.414062 133.339844 48.589844 133.179688 48.261719 132.492188 C 47.882812 131.8125 48.113281 130.75 48.820312 129.625 L 50.996094 126.171875 C 52.464844 123.839844 55.707031 121.941406 58.070312 122.023438 L 80.84375 122.894531 L 73.679688 134.265625 Z M 75.953125 160.34375 L 67.628906 159.964844 L 54.460938 135.03125 L 74.476562 135.8125 L 83.46875 121.535156 L 81.898438 119.300781 L 56.539062 118.324219 C 53.601562 118.203125 49.917969 120.347656 48.140625 123.167969 C 48.160156 123.140625 48.179688 123.109375 48.195312 123.082031 L 47.910156 122.578125 L 48.214844 113.925781 L 63.125 114.511719 L 72.117188 100.230469 L 70.546875 97.996094 L 53.625 97.351562 L 54.570312 97.382812 L 69.058594 74.382812 L 77.382812 74.761719 L 97.101562 112.148438 L 96.730469 121.925781 L 96.496094 127.726562 Z M 98.261719 121.925781 L 98.628906 112.785156 L 115.230469 113.433594 L 125.234375 113.824219 L 124.8125 128.476562 L 98.035156 127.453125 Z M 104.394531 161.410156 L 77.8125 160.390625 L 97.648438 128.898438 L 124.226562 129.914062 Z M 179.730469 169.855469 C 171.566406 169.539062 164.167969 164.878906 160.355469 157.652344 C 153.148438 143.945312 140.320312 134.179688 125.585938 130.570312 L 126.273438 129.476562 L 126.449219 123.070312 C 133.191406 124.625 139.621094 127.308594 145.410156 130.953125 C 154.363281 136.589844 161.863281 144.53125 166.9375 154.160156 C 169.5 159.03125 174.480469 162.167969 179.980469 162.375 C 185.554688 162.585938 190.621094 159.90625 193.59375 155.1875 C 196.566406 150.464844 196.765625 144.722656 194.195312 139.804688 C 190.332031 132.464844 190.65625 123.90625 195.0625 116.910156 C 199.46875 109.914062 207.046875 105.921875 215.335938 106.234375 L 226.410156 106.65625 C 226.835938 106.683594 227.253906 106.785156 227.652344 106.917969 C 228.152344 109.121094 228.152344 111.613281 227.625 113.855469 C 227.101562 114.046875 215.074219 113.671875 215.074219 113.671875 C 209.5 113.457031 204.433594 116.136719 201.460938 120.859375 C 198.488281 125.582031 198.289062 131.324219 200.859375 136.242188 C 204.722656 143.578125 204.398438 152.140625 199.992188 159.136719 C 195.597656 166.179688 188.015625 170.167969 179.730469 169.855469 Z M 51.167969 106.742188 C 49.9375 108.699219 47.050781 110.21875 44.6875 110.136719 C 42.34375 110.027344 41.453125 108.382812 42.683594 106.421875 C 43.917969 104.464844 46.804688 102.945312 49.167969 103.027344 C 51.5 103.089844 52.402344 104.785156 51.167969 106.742188 Z M 62.492188 128.023438 C 61.261719 129.984375 58.375 131.503906 56.011719 131.421875 C 53.667969 131.3125 52.773438 129.664062 54.007812 127.707031 C 55.242188 125.75 58.128906 124.230469 60.488281 124.3125 C 62.832031 124.421875 63.726562 126.066406 62.492188 128.023438 Z M 62.492188 128.023438 " fill-opacity="1" fill-rule="nonzero"/></g></g></g><g clip-path="url(#36cf07c8a8)"><g clip-path="url(#94b9d935ea)"><g clip-path="url(#8d6cd0c55c)"><path fill="#ffffff" d="M 94.292969 105.113281 L 118.878906 99.527344 L 118.996094 99.722656 L 106.5625 102.546875 L 94.410156 105.308594 Z M 95.824219 108.046875 L 95.941406 108.242188 L 104.152344 106.375 L 120.527344 102.65625 L 120.410156 102.460938 L 116.515625 103.347656 Z M 97.371094 110.949219 L 97.488281 111.144531 L 101.757812 110.175781 L 111.472656 107.96875 L 114.191406 107.351562 L 122.074219 105.5625 L 121.957031 105.367188 L 114.121094 107.144531 Z M 97.839844 114.101562 L 97.816406 114.328125 L 99.367188 113.976562 L 109.265625 111.726562 L 111.753906 111.164062 L 123.578125 108.476562 L 123.457031 108.28125 L 111.679688 110.957031 Z M 97.699219 117.390625 L 97.675781 117.617188 L 125.125 111.382812 L 125.007812 111.1875 L 109.289062 114.757812 Z M 97.558594 120.675781 L 97.535156 120.90625 L 125.96875 114.445312 L 125.992188 114.21875 L 106.941406 118.546875 Z M 97.417969 123.964844 L 97.394531 124.191406 L 125.875 117.722656 L 125.898438 117.496094 L 104.53125 122.375 Z M 97.304688 127.273438 L 97.28125 127.5 L 125.808594 121.019531 L 125.832031 120.792969 L 102.183594 126.164062 Z M 91.226562 99.320312 L 91.34375 99.515625 L 111.332031 94.976562 L 115.929688 93.929688 L 115.8125 93.734375 Z M 86.152344 74.371094 L 78.925781 76.011719 L 79.042969 76.207031 L 87.019531 74.398438 Z M 98.425781 74.863281 L 90.871094 76.582031 L 80.503906 78.9375 L 80.621094 79.132812 L 99.339844 74.878906 Z M 106.609375 76.238281 L 94.671875 78.972656 L 82.003906 81.851562 L 82.121094 82.046875 L 106.707031 76.460938 Z M 108.136719 79.171875 L 98.472656 81.367188 L 83.550781 84.757812 L 83.667969 84.953125 L 108.253906 79.367188 Z M 109.683594 82.078125 L 102.273438 83.761719 L 85.097656 87.660156 L 85.21875 87.855469 L 109.804688 82.273438 Z M 111.214844 85.011719 L 106.101562 86.171875 L 86.628906 90.59375 L 86.746094 90.789062 L 111.332031 85.207031 Z M 112.734375 87.898438 L 109.871094 88.546875 L 88.148438 93.480469 L 88.265625 93.675781 L 112.851562 88.09375 Z M 92.898438 135.03125 L 97.402344 134.007812 L 125.601562 127.605469 L 125.625 127.378906 L 93.109375 134.761719 L 92.929688 135.050781 Z M 90.507812 138.832031 L 101.203125 136.402344 L 124.335938 131.148438 L 124.5 130.890625 L 90.667969 138.574219 Z M 92.546875 141.402344 L 88.277344 142.375 L 88.113281 142.632812 L 105.003906 138.796875 L 121.941406 134.949219 L 122.105469 134.691406 Z M 96.347656 143.796875 L 90.152344 145.203125 L 85.882812 146.175781 L 85.71875 146.433594 L 108.804688 141.191406 L 119.550781 138.75 L 119.710938 138.488281 Z M 100.144531 146.191406 L 87.757812 149.003906 L 83.488281 149.972656 L 83.328125 150.234375 L 112.605469 143.582031 L 117.15625 142.550781 L 117.320312 142.289062 Z M 103.945312 148.585938 L 85.320312 152.816406 L 81.050781 153.785156 L 80.886719 154.042969 L 114.714844 146.359375 L 114.878906 146.101562 Z M 107.777344 150.996094 L 82.953125 156.632812 L 78.683594 157.601562 L 78.523438 157.863281 L 112.351562 150.179688 L 112.515625 149.917969 Z M 77.417969 161.148438 L 78.285156 161.171875 L 109.957031 153.976562 L 110.121094 153.71875 L 80.5625 160.433594 Z M 90.578125 161.636719 L 107.566406 157.777344 L 107.726562 157.519531 L 89.664062 161.621094 Z M 102.824219 162.113281 L 105.171875 161.578125 L 105.335938 161.320312 L 101.957031 162.085938 Z M 114.28125 90.800781 L 113.671875 90.941406 L 89.695312 96.386719 L 89.816406 96.582031 L 114.402344 90.996094 Z M 92.894531 102.421875 L 108.984375 98.765625 L 117.480469 96.835938 L 117.359375 96.640625 L 92.773438 102.226562 Z M 95.472656 130.945312 L 95.3125 131.203125 L 125.714844 124.296875 L 125.738281 124.070312 L 99.789062 129.964844 Z M 95.472656 130.945312 " fill-opacity="1" fill-rule="nonzero"/></g></g></g></svg>