<svg xmlns="http://www.w3.org/2000/svg" xmlns:xlink="http://www.w3.org/1999/xlink" width="50" zoomAndPan="magnify" viewBox="0 0 37.5 37.499999" height="50" preserveAspectRatio="xMidYMid meet" version="1.0"><defs><clipPath id="91333b5214"><path d="M 0.921875 0 L 36.921875 0 L 36.921875 37.007812 L 0.921875 37.007812 Z M 0.921875 0 " clip-rule="nonzero"/></clipPath><clipPath id="87be1c2451"><path d="M 2 0 L 36.921875 0 L 36.921875 34 L 2 34 Z M 2 0 " clip-rule="nonzero"/></clipPath><clipPath id="f722897446"><path d="M 1 1 L 36.921875 1 L 36.921875 37 L 1 37 Z M 1 1 " clip-rule="nonzero"/></clipPath><clipPath id="f1419a9cfc"><path d="M 0.921875 0 L 36.921875 0 L 36.921875 37.007812 L 0.921875 37.007812 Z M 0.921875 0 " clip-rule="nonzero"/></clipPath></defs><g clip-path="url(#91333b5214)"><path fill="#011c43" d="M 36.902344 27.300781 C 36.902344 27.195312 36.863281 27.113281 36.792969 27.074219 C 36.71875 27.03125 36.628906 27.039062 36.535156 27.089844 L 36.398438 27.167969 L 36.398438 14.992188 C 36.398438 14.710938 36.324219 14.4375 36.183594 14.191406 C 36.039062 13.949219 35.835938 13.746094 35.589844 13.605469 L 12.058594 0.191406 C 11.722656 0 11.308594 0.0078125 10.984375 0.21875 L 9.417969 1.121094 C 9.039062 1.285156 8.792969 1.652344 8.792969 2.058594 L 8.792969 2.503906 L 6.464844 1.175781 C 6.179688 1.011719 5.847656 0.992188 5.546875 1.117188 C 5.164062 1.28125 4.917969 1.648438 4.917969 2.058594 L 4.917969 5.382812 L 1.019531 3.164062 C 1 3.152344 0.972656 3.152344 0.953125 3.164062 C 0.933594 3.175781 0.921875 3.195312 0.921875 3.21875 L 0.921875 19.058594 C 0.921875 19.082031 0.933594 19.101562 0.953125 19.113281 L 10.691406 24.679688 C 10.691406 24.683594 10.691406 24.683594 10.695312 24.683594 L 15.710938 27.550781 C 15.710938 27.550781 15.714844 27.554688 15.714844 27.554688 L 17.421875 28.53125 L 13.976562 30.5 C 13.957031 30.511719 13.945312 30.53125 13.945312 30.554688 L 13.945312 31.542969 C 13.945312 31.566406 13.957031 31.589844 13.976562 31.601562 L 24.28125 37.492188 C 24.289062 37.496094 24.300781 37.5 24.3125 37.5 C 24.324219 37.5 24.335938 37.496094 24.347656 37.492188 L 29.496094 34.546875 C 29.515625 34.535156 29.53125 34.511719 29.53125 34.488281 L 29.53125 34.058594 C 29.609375 34.078125 29.6875 34.089844 29.769531 34.089844 C 29.917969 34.089844 30.070312 34.054688 30.210938 33.988281 C 30.261719 33.964844 30.3125 33.9375 30.359375 33.90625 C 30.359375 33.902344 30.359375 33.902344 30.359375 33.902344 C 30.640625 33.710938 30.804688 33.402344 30.804688 33.0625 L 30.804688 32.617188 L 33.132812 33.949219 C 33.292969 34.042969 33.46875 34.089844 33.648438 34.089844 C 33.796875 34.089844 33.945312 34.054688 34.089844 33.988281 C 34.136719 33.964844 34.1875 33.9375 34.230469 33.90625 C 34.230469 33.90625 34.234375 33.90625 34.234375 33.90625 L 35.761719 33.035156 L 35.761719 33.246094 C 35.761719 33.351562 35.800781 33.433594 35.871094 33.472656 C 35.902344 33.492188 35.9375 33.5 35.976562 33.5 C 36.023438 33.5 36.074219 33.484375 36.128906 33.453125 L 36.617188 33.175781 C 36.789062 33.078125 36.917969 32.851562 36.917969 32.660156 Z M 29.027344 31.601562 L 29.027344 31.789062 L 23.519531 28.640625 L 23.519531 28.453125 Z M 8.792969 7.597656 L 6.691406 6.398438 L 6.691406 3.332031 L 8.792969 4.53125 Z M 8.792969 7.597656 " fill-opacity="1" fill-rule="nonzero"/></g><g clip-path="url(#87be1c2451)"><path fill="#9fcdff" d="M 9.828125 1.035156 L 11.054688 0.328125 C 11.339844 0.144531 11.699219 0.136719 11.992188 0.304688 L 35.523438 13.71875 C 35.730469 13.839844 35.90625 14.003906 36.035156 14.203125 L 35.3125 14.613281 L 34.429688 15.121094 C 34.289062 14.902344 34.097656 14.71875 33.871094 14.589844 L 10.34375 1.175781 C 10.183594 1.082031 10.003906 1.035156 9.828125 1.035156 Z M 22.53125 31.449219 L 19.226562 29.5625 L 19.226562 31.5 L 22.53125 33.386719 Z M 30.671875 33.0625 L 30.671875 15.976562 C 30.671875 15.71875 30.601562 15.464844 30.472656 15.242188 C 30.34375 15.019531 30.152344 14.832031 29.929688 14.703125 L 6.398438 1.285156 C 6.257812 1.207031 6.105469 1.167969 5.949219 1.167969 C 5.832031 1.167969 5.710938 1.191406 5.597656 1.238281 C 5.257812 1.382812 5.046875 1.695312 5.046875 2.058594 L 5.046875 5.460938 L 6.558594 6.320312 L 6.558594 3.21875 C 6.558594 3.195312 6.570312 3.175781 6.59375 3.164062 C 6.613281 3.152344 6.636719 3.152344 6.660156 3.164062 L 29.125 15.972656 C 29.148438 15.984375 29.160156 16.007812 29.160156 16.03125 L 29.160156 31.902344 C 29.160156 31.925781 29.148438 31.949219 29.125 31.960938 C 29.117188 31.964844 29.105469 31.96875 29.09375 31.96875 C 29.082031 31.96875 29.070312 31.964844 29.058594 31.960938 L 23.519531 28.792969 L 23.519531 30.519531 L 29.320312 33.835938 C 29.578125 33.984375 29.882812 33.996094 30.152344 33.871094 C 30.199219 33.851562 30.242188 33.824219 30.28125 33.796875 C 30.28125 33.796875 30.28125 33.796875 30.285156 33.796875 C 30.53125 33.628906 30.671875 33.359375 30.671875 33.0625 Z M 4.59375 5.351562 L 2.085938 3.921875 L 10.683594 24.527344 L 10.753906 24.566406 C 10.753906 24.566406 10.753906 24.566406 10.757812 24.566406 L 13.191406 25.960938 Z M 16.957031 28.113281 L 21.082031 30.472656 L 12.476562 9.847656 L 8.359375 7.5 Z M 7.105469 6.78125 L 5.742188 6.003906 L 14.339844 26.617188 L 15.703125 27.394531 Z M 7.105469 6.78125 " fill-opacity="1" fill-rule="nonzero"/></g><g clip-path="url(#f722897446)"><path fill="#5284ff" d="M 29.027344 30.675781 L 29.027344 31.453125 L 23.519531 28.304688 L 23.519531 27.527344 Z M 8.925781 7.671875 L 9.605469 8.058594 L 9.605469 4.992188 L 8.925781 4.605469 Z M 34.164062 33.796875 C 34.347656 33.667969 34.472656 33.488281 34.523438 33.28125 C 34.539062 33.210938 34.550781 33.136719 34.550781 33.0625 L 34.550781 15.976562 C 34.550781 15.71875 34.480469 15.464844 34.351562 15.242188 C 34.269531 15.101562 34.164062 14.976562 34.042969 14.871094 C 33.972656 14.808594 33.890625 14.753906 33.808594 14.703125 L 10.277344 1.285156 C 10.242188 1.269531 10.210938 1.25 10.175781 1.238281 C 10.164062 1.234375 10.152344 1.230469 10.140625 1.226562 C 10.117188 1.214844 10.09375 1.207031 10.070312 1.199219 C 10.054688 1.195312 10.042969 1.195312 10.027344 1.191406 C 10.003906 1.1875 9.984375 1.179688 9.960938 1.179688 C 9.945312 1.175781 9.929688 1.175781 9.917969 1.171875 C 9.894531 1.171875 9.871094 1.167969 9.851562 1.167969 C 9.835938 1.167969 9.816406 1.167969 9.800781 1.167969 C 9.785156 1.167969 9.773438 1.167969 9.761719 1.171875 C 9.742188 1.171875 9.722656 1.175781 9.703125 1.175781 C 9.6875 1.179688 9.675781 1.179688 9.664062 1.183594 C 9.644531 1.1875 9.621094 1.191406 9.601562 1.199219 C 9.589844 1.199219 9.578125 1.203125 9.570312 1.207031 C 9.539062 1.214844 9.507812 1.226562 9.476562 1.238281 C 9.136719 1.382812 8.925781 1.695312 8.925781 2.058594 L 8.925781 2.578125 L 9.605469 2.964844 L 9.605469 2.058594 C 9.605469 1.96875 9.65625 1.894531 9.742188 1.859375 C 9.808594 1.832031 9.871094 1.835938 9.9375 1.871094 L 33.46875 15.289062 C 33.589844 15.355469 33.691406 15.457031 33.761719 15.578125 C 33.832031 15.699219 33.867188 15.835938 33.867188 15.976562 L 33.867188 33.0625 C 33.867188 33.160156 33.816406 33.214844 33.777344 33.242188 C 33.761719 33.25 33.753906 33.257812 33.742188 33.261719 C 33.710938 33.277344 33.679688 33.285156 33.648438 33.285156 C 33.609375 33.285156 33.574219 33.273438 33.539062 33.253906 L 30.804688 31.6875 L 30.804688 32.46875 L 33.199219 33.835938 C 33.457031 33.984375 33.761719 33.996094 34.03125 33.871094 Z M 35.890625 32.152344 L 35.890625 33.246094 C 35.890625 33.300781 35.910156 33.34375 35.9375 33.359375 C 35.96875 33.378906 36.011719 33.371094 36.0625 33.339844 L 36.550781 33.0625 C 36.679688 32.988281 36.789062 32.804688 36.785156 32.660156 L 36.785156 31.636719 Z M 36.113281 27.484375 C 35.984375 27.558594 35.875 27.742188 35.878906 27.886719 L 35.890625 32.003906 L 36.785156 31.488281 L 36.769531 27.300781 C 36.769531 27.242188 36.753906 27.203125 36.726562 27.1875 C 36.695312 27.167969 36.652344 27.175781 36.601562 27.203125 Z M 24.3125 36.371094 L 28.898438 33.746094 L 24.378906 31.164062 L 24.378906 32.519531 C 24.378906 32.542969 24.367188 32.5625 24.347656 32.574219 L 22.628906 33.554688 C 22.617188 33.5625 22.609375 33.566406 22.597656 33.566406 C 22.585938 33.566406 22.574219 33.5625 22.5625 33.554688 L 19.128906 31.59375 C 19.109375 31.582031 19.097656 31.558594 19.097656 31.535156 L 19.097656 29.488281 L 17.554688 28.605469 L 14.144531 30.554688 Z M 8.359375 7.5 L 7.105469 6.78125 L 15.703125 27.394531 L 15.773438 27.4375 C 15.773438 27.4375 15.777344 27.4375 15.777344 27.4375 L 16.957031 28.113281 Z M 21.082031 30.472656 L 23.386719 31.789062 L 23.386719 16.066406 L 12.476562 9.847656 Z M 2.085938 3.921875 L 1.050781 3.332031 L 1.050781 19.019531 L 10.683594 24.527344 Z M 5.742188 6.003906 L 4.59375 5.351562 L 13.191406 25.960938 L 14.339844 26.617188 Z M 5.742188 6.003906 " fill-opacity="1" fill-rule="nonzero"/></g><g clip-path="url(#f1419a9cfc)"><path fill="#011c43" d="M 36.902344 27.300781 C 36.902344 27.195312 36.863281 27.113281 36.792969 27.074219 C 36.71875 27.03125 36.628906 27.039062 36.535156 27.089844 L 36.398438 27.167969 L 36.398438 14.992188 C 36.398438 14.710938 36.324219 14.4375 36.183594 14.191406 C 36.039062 13.949219 35.835938 13.746094 35.589844 13.605469 L 12.058594 0.191406 C 11.722656 0 11.308594 0.0078125 10.984375 0.21875 L 9.417969 1.121094 C 9.039062 1.285156 8.792969 1.652344 8.792969 2.058594 L 8.792969 2.503906 L 6.464844 1.175781 C 6.179688 1.011719 5.847656 0.992188 5.546875 1.117188 C 5.164062 1.28125 4.917969 1.648438 4.917969 2.058594 L 4.917969 5.382812 L 1.019531 3.164062 C 1 3.152344 0.972656 3.152344 0.953125 3.164062 C 0.933594 3.175781 0.921875 3.195312 0.921875 3.21875 L 0.921875 19.058594 C 0.921875 19.082031 0.933594 19.101562 0.953125 19.113281 L 10.691406 24.679688 C 10.691406 24.683594 10.691406 24.683594 10.695312 24.683594 L 15.710938 27.550781 C 15.710938 27.550781 15.714844 27.554688 15.714844 27.554688 L 17.421875 28.53125 L 13.976562 30.5 C 13.957031 30.511719 13.945312 30.53125 13.945312 30.554688 L 13.945312 31.542969 C 13.945312 31.566406 13.957031 31.589844 13.976562 31.601562 L 24.28125 37.492188 C 24.289062 37.496094 24.300781 37.5 24.3125 37.5 C 24.324219 37.5 24.335938 37.496094 24.347656 37.492188 L 29.496094 34.546875 C 29.515625 34.535156 29.53125 34.511719 29.53125 34.488281 L 29.53125 34.058594 C 29.609375 34.078125 29.6875 34.089844 29.769531 34.089844 C 29.917969 34.089844 30.070312 34.054688 30.210938 33.988281 C 30.261719 33.964844 30.3125 33.9375 30.359375 33.90625 C 30.359375 33.902344 30.359375 33.902344 30.359375 33.902344 C 30.640625 33.710938 30.804688 33.402344 30.804688 33.0625 L 30.804688 32.617188 L 33.132812 33.949219 C 33.292969 34.042969 33.46875 34.089844 33.648438 34.089844 C 33.796875 34.089844 33.945312 34.054688 34.089844 33.988281 C 34.136719 33.964844 34.1875 33.9375 34.230469 33.90625 C 34.230469 33.90625 34.234375 33.90625 34.234375 33.90625 L 35.761719 33.035156 L 35.761719 33.246094 C 35.761719 33.351562 35.800781 33.433594 35.871094 33.472656 C 35.902344 33.492188 35.9375 33.5 35.976562 33.5 C 36.023438 33.5 36.074219 33.484375 36.128906 33.453125 L 36.617188 33.175781 C 36.789062 33.078125 36.917969 32.851562 36.917969 32.660156 Z M 36.785156 32.660156 C 36.789062 32.804688 36.679688 32.988281 36.550781 33.0625 L 36.0625 33.339844 C 36.011719 33.371094 35.96875 33.378906 35.9375 33.359375 C 35.910156 33.34375 35.890625 33.300781 35.890625 33.246094 L 35.890625 32.152344 L 36.785156 31.636719 Z M 33.199219 33.835938 L 30.804688 32.46875 L 30.804688 31.6875 L 33.539062 33.253906 C 33.574219 33.273438 33.609375 33.285156 33.648438 33.285156 C 33.679688 33.285156 33.710938 33.277344 33.742188 33.261719 C 33.753906 33.257812 33.761719 33.25 33.773438 33.242188 C 33.816406 33.214844 33.867188 33.160156 33.867188 33.0625 L 33.867188 15.976562 C 33.867188 15.835938 33.832031 15.699219 33.761719 15.578125 C 33.691406 15.457031 33.589844 15.355469 33.46875 15.289062 L 9.9375 1.871094 C 9.871094 1.835938 9.808594 1.832031 9.742188 1.859375 C 9.65625 1.894531 9.605469 1.96875 9.605469 2.058594 L 9.605469 2.964844 L 8.925781 2.578125 L 8.925781 2.058594 C 8.925781 1.695312 9.136719 1.382812 9.476562 1.238281 C 9.507812 1.226562 9.539062 1.214844 9.570312 1.207031 C 9.578125 1.203125 9.589844 1.199219 9.601562 1.199219 C 9.621094 1.191406 9.644531 1.1875 9.664062 1.183594 C 9.675781 1.179688 9.6875 1.179688 9.699219 1.175781 C 9.722656 1.175781 9.742188 1.171875 9.761719 1.171875 C 9.773438 1.167969 9.785156 1.167969 9.800781 1.167969 C 9.816406 1.167969 9.832031 1.167969 9.851562 1.167969 C 9.871094 1.167969 9.894531 1.171875 9.917969 1.171875 C 9.929688 1.175781 9.945312 1.175781 9.960938 1.179688 C 9.984375 1.179688 10.003906 1.1875 10.027344 1.191406 C 10.042969 1.195312 10.054688 1.195312 10.070312 1.199219 C 10.09375 1.207031 10.117188 1.214844 10.140625 1.226562 C 10.152344 1.230469 10.164062 1.234375 10.175781 1.238281 C 10.210938 1.25 10.242188 1.269531 10.277344 1.285156 L 33.808594 14.703125 C 33.890625 14.753906 33.96875 14.808594 34.042969 14.871094 C 34.164062 14.976562 34.269531 15.101562 34.351562 15.242188 C 34.480469 15.464844 34.550781 15.71875 34.550781 15.976562 L 34.550781 33.0625 C 34.550781 33.136719 34.539062 33.210938 34.523438 33.28125 C 34.472656 33.488281 34.347656 33.671875 34.160156 33.796875 L 34.03125 33.871094 C 33.761719 33.996094 33.457031 33.984375 33.199219 33.835938 Z M 30.28125 33.796875 C 30.242188 33.824219 30.199219 33.851562 30.152344 33.871094 C 29.882812 33.996094 29.578125 33.984375 29.320312 33.835938 L 23.519531 30.519531 L 23.519531 28.792969 L 29.0625 31.960938 C 29.070312 31.964844 29.082031 31.96875 29.09375 31.96875 C 29.105469 31.96875 29.117188 31.964844 29.125 31.960938 C 29.148438 31.949219 29.160156 31.925781 29.160156 31.902344 L 29.160156 16.03125 C 29.160156 16.007812 29.148438 15.984375 29.125 15.972656 L 6.660156 3.164062 C 6.636719 3.152344 6.613281 3.152344 6.59375 3.164062 C 6.570312 3.175781 6.558594 3.195312 6.558594 3.21875 L 6.558594 6.320312 L 5.046875 5.460938 L 5.046875 2.058594 C 5.046875 1.695312 5.257812 1.382812 5.597656 1.238281 C 5.710938 1.191406 5.832031 1.167969 5.949219 1.167969 C 6.105469 1.167969 6.257812 1.207031 6.398438 1.285156 L 29.929688 14.703125 C 30.152344 14.832031 30.34375 15.019531 30.472656 15.242188 C 30.601562 15.464844 30.671875 15.71875 30.671875 15.972656 L 30.671875 33.0625 C 30.671875 33.359375 30.53125 33.628906 30.285156 33.796875 C 30.28125 33.796875 30.28125 33.796875 30.28125 33.796875 Z M 15.773438 27.4375 L 15.703125 27.394531 L 14.339844 26.617188 L 13.191406 25.960938 L 10.757812 24.566406 C 10.753906 24.566406 10.753906 24.566406 10.753906 24.566406 L 10.683594 24.527344 L 1.050781 19.019531 L 1.050781 3.332031 L 2.085938 3.921875 L 4.59375 5.351562 L 5.742188 6.003906 L 7.105469 6.78125 L 8.359375 7.5 L 12.476562 9.847656 L 23.386719 16.066406 L 23.386719 31.789062 L 21.082031 30.472656 L 16.957031 28.113281 L 15.777344 27.4375 C 15.777344 27.4375 15.773438 27.4375 15.773438 27.4375 Z M 19.226562 29.5625 L 22.53125 31.449219 L 22.53125 33.386719 L 19.226562 31.5 Z M 29.027344 31.601562 L 29.027344 31.789062 L 23.519531 28.640625 L 23.519531 28.453125 Z M 23.519531 28.304688 L 23.519531 27.527344 L 29.027344 30.675781 L 29.027344 31.453125 Z M 9.605469 8.058594 L 8.925781 7.671875 L 8.925781 4.605469 L 9.605469 4.996094 Z M 8.792969 7.597656 L 6.691406 6.398438 L 6.691406 3.332031 L 8.792969 4.53125 Z M 19.097656 29.488281 L 19.097656 31.535156 C 19.097656 31.558594 19.109375 31.582031 19.128906 31.59375 L 22.5625 33.554688 C 22.574219 33.5625 22.585938 33.566406 22.597656 33.566406 C 22.605469 33.566406 22.617188 33.5625 22.628906 33.554688 L 24.347656 32.574219 C 24.367188 32.5625 24.378906 32.542969 24.378906 32.519531 L 24.378906 31.164062 L 28.898438 33.746094 L 24.3125 36.371094 L 14.144531 30.554688 L 17.554688 28.605469 Z M 11.992188 0.304688 L 35.523438 13.71875 C 35.730469 13.839844 35.90625 14.003906 36.035156 14.203125 L 35.3125 14.613281 L 34.429688 15.121094 C 34.289062 14.902344 34.097656 14.71875 33.871094 14.589844 L 10.34375 1.175781 C 10.183594 1.082031 10.003906 1.035156 9.828125 1.035156 L 11.054688 0.328125 C 11.339844 0.144531 11.699219 0.136719 11.992188 0.304688 Z M 36.601562 27.203125 C 36.652344 27.175781 36.695312 27.167969 36.726562 27.1875 C 36.753906 27.203125 36.769531 27.242188 36.769531 27.300781 L 36.785156 31.488281 L 35.890625 32.003906 L 35.878906 27.886719 C 35.875 27.742188 35.984375 27.558594 36.113281 27.484375 Z M 36.601562 27.203125 " fill-opacity="1" fill-rule="nonzero"/></g></svg>