<svg xmlns="http://www.w3.org/2000/svg" xmlns:xlink="http://www.w3.org/1999/xlink" width="50" zoomAndPan="magnify" viewBox="0 0 37.5 37.499999" height="50" preserveAspectRatio="xMidYMid meet" version="1.0"><defs><clipPath id="36e12bd8b1"><path d="M 1 15 L 17 15 L 17 33 L 1 33 Z M 1 15 " clip-rule="nonzero"/></clipPath><clipPath id="93757d3519"><path d="M -6.339844 17.289062 L 28.769531 -4.363281 L 43.730469 19.894531 L 8.621094 41.546875 Z M -6.339844 17.289062 " clip-rule="nonzero"/></clipPath><clipPath id="691732e267"><path d="M -6.339844 17.289062 L 28.769531 -4.363281 L 43.730469 19.894531 L 8.621094 41.546875 Z M -6.339844 17.289062 " clip-rule="nonzero"/></clipPath><clipPath id="8bf16d1466"><path d="M 21 4 L 37 4 L 37 23 L 21 23 Z M 21 4 " clip-rule="nonzero"/></clipPath><clipPath id="cfdba33fcc"><path d="M -6.339844 17.289062 L 28.769531 -4.363281 L 43.730469 19.894531 L 8.621094 41.546875 Z M -6.339844 17.289062 " clip-rule="nonzero"/></clipPath><clipPath id="22d4f01c2d"><path d="M -6.339844 17.289062 L 28.769531 -4.363281 L 43.730469 19.894531 L 8.621094 41.546875 Z M -6.339844 17.289062 " clip-rule="nonzero"/></clipPath><clipPath id="94ec13c199"><path d="M 13 4 L 24 4 L 24 34 L 13 34 Z M 13 4 " clip-rule="nonzero"/></clipPath><clipPath id="33c7df6954"><path d="M -6.339844 17.289062 L 28.769531 -4.363281 L 43.730469 19.894531 L 8.621094 41.546875 Z M -6.339844 17.289062 " clip-rule="nonzero"/></clipPath><clipPath id="786c753865"><path d="M -6.339844 17.289062 L 28.769531 -4.363281 L 43.730469 19.894531 L 8.621094 41.546875 Z M -6.339844 17.289062 " clip-rule="nonzero"/></clipPath></defs><g clip-path="url(#36e12bd8b1)"><g clip-path="url(#93757d3519)"><g clip-path="url(#691732e267)"><path fill="#5284ff" d="M 15.417969 32.640625 C 14.898438 32.957031 14.445312 33 13.890625 32.875 L 2.753906 30.308594 C 1.640625 30.050781 1.007812 29.027344 1.28125 27.917969 L 3.988281 16.816406 C 4.257812 15.703125 5.296875 15.0625 6.410156 15.320312 C 7.523438 15.578125 8.15625 16.601562 7.882812 17.710938 L 5.652344 26.871094 L 14.835938 28.988281 C 15.949219 29.246094 16.582031 30.269531 16.3125 31.378906 C 16.175781 31.933594 15.9375 32.320312 15.417969 32.640625 Z M 15.417969 32.640625 " fill-opacity="1" fill-rule="nonzero"/></g></g></g><g clip-path="url(#8bf16d1466)"><g clip-path="url(#cfdba33fcc)"><g clip-path="url(#22d4f01c2d)"><path fill="#5284ff" d="M 32.71875 21.96875 C 32.199219 22.289062 31.75 22.332031 31.191406 22.203125 C 30.078125 21.945312 29.445312 20.921875 29.71875 19.8125 L 31.949219 10.652344 L 22.765625 8.535156 C 21.652344 8.28125 21.019531 7.253906 21.289062 6.144531 C 21.558594 5.035156 22.597656 4.394531 23.710938 4.652344 L 34.847656 7.214844 C 35.960938 7.472656 36.59375 8.496094 36.320312 9.609375 L 33.613281 20.710938 C 33.480469 21.265625 33.238281 21.648438 32.71875 21.96875 Z M 32.71875 21.96875 " fill-opacity="1" fill-rule="nonzero"/></g></g></g><g clip-path="url(#94ec13c199)"><g clip-path="url(#33c7df6954)"><g clip-path="url(#786c753865)"><path fill="#5284ff" d="M 22.714844 32.855469 C 22.542969 32.960938 22.367188 33.066406 22.089844 33.003906 C 21.015625 33.195312 19.96875 32.660156 19.683594 31.421875 L 13.960938 6.65625 C 13.78125 5.585938 14.332031 4.542969 15.578125 4.242188 C 16.65625 4.050781 17.699219 4.585938 17.988281 5.824219 L 23.707031 30.589844 C 23.78125 31.488281 23.40625 32.425781 22.714844 32.855469 Z M 22.714844 32.855469 " fill-opacity="1" fill-rule="nonzero"/></g></g></g></svg>