<svg xmlns="http://www.w3.org/2000/svg" xmlns:xlink="http://www.w3.org/1999/xlink" width="194" zoomAndPan="magnify" viewBox="0 0 145.5 92.249997" height="123" preserveAspectRatio="xMidYMid meet" version="1.0"><defs><clipPath id="1c9575e3fe"><path d="M 26.839844 0 L 118.660156 0 L 118.660156 91.507812 L 26.839844 91.507812 Z M 26.839844 0 " clip-rule="nonzero"/></clipPath><clipPath id="341a6a5820"><path d="M 78 0 L 111 0 L 111 91.507812 L 78 91.507812 Z M 78 0 " clip-rule="nonzero"/></clipPath><clipPath id="0b8b02c616"><path d="M 77 0 L 92 0 L 92 91.507812 L 77 91.507812 Z M 77 0 " clip-rule="nonzero"/></clipPath><clipPath id="f2dedfb829"><path d="M 35 0 L 67 0 L 67 91.507812 L 35 91.507812 Z M 35 0 " clip-rule="nonzero"/></clipPath><clipPath id="0fabb0304c"><path d="M 53 0 L 68 0 L 68 91.507812 L 53 91.507812 Z M 53 0 " clip-rule="nonzero"/></clipPath></defs><g clip-path="url(#1c9575e3fe)"><path fill="#004aad" d="M 118.632812 45.890625 C 118.632812 71.242188 98.082031 91.796875 72.730469 91.796875 C 47.378906 91.796875 26.828125 71.242188 26.828125 45.890625 C 26.828125 20.539062 47.378906 -0.0117188 72.730469 -0.0117188 C 98.082031 -0.0117188 118.632812 20.539062 118.632812 45.890625 " fill-opacity="1" fill-rule="nonzero"/></g><path fill="#5284ff" d="M 116.859375 33.207031 C 116.859375 33.207031 116.683594 33.558594 116.355469 34.214844 C 115.988281 34.851562 115.472656 35.808594 114.621094 36.894531 C 112.960938 39.089844 110.117188 41.933594 106.0625 44.414062 C 104.039062 45.660156 101.75 46.84375 99.234375 47.878906 C 96.71875 48.910156 93.996094 49.832031 91.121094 50.5625 C 88.246094 51.277344 85.234375 51.875 82.144531 52.238281 C 79.054688 52.601562 75.894531 52.796875 72.730469 52.808594 C 69.585938 52.796875 66.402344 52.601562 63.320312 52.238281 C 60.230469 51.875 57.21875 51.28125 54.34375 50.5625 C 51.46875 49.835938 48.746094 48.914062 46.230469 47.882812 C 43.714844 46.84375 41.421875 45.660156 39.402344 44.417969 C 35.34375 41.9375 32.5 39.089844 30.84375 36.894531 C 29.992188 35.808594 29.472656 34.855469 29.109375 34.21875 C 28.777344 33.558594 28.605469 33.207031 28.605469 33.207031 C 28.605469 33.207031 28.804688 33.542969 29.175781 34.175781 C 29.578125 34.789062 30.175781 35.683594 31.066406 36.71875 C 31.945312 37.757812 33.109375 38.941406 34.578125 40.132812 C 36.046875 41.328125 37.804688 42.546875 39.832031 43.695312 C 41.859375 44.832031 44.144531 45.90625 46.632812 46.867188 C 49.128906 47.808594 51.820312 48.632812 54.648438 49.3125 C 57.484375 49.984375 60.453125 50.480469 63.484375 50.835938 C 66.53125 51.175781 69.613281 51.347656 72.730469 51.347656 C 78.941406 51.359375 85.148438 50.644531 90.816406 49.3125 C 93.644531 48.636719 96.335938 47.8125 98.832031 46.871094 C 101.320312 45.910156 103.605469 44.835938 105.636719 43.699219 C 107.660156 42.546875 109.421875 41.332031 110.886719 40.136719 C 112.355469 38.941406 113.523438 37.757812 114.398438 36.71875 C 115.289062 35.683594 115.882812 34.789062 116.289062 34.175781 C 116.660156 33.542969 116.859375 33.207031 116.859375 33.207031 " fill-opacity="1" fill-rule="nonzero"/><path fill="#5284ff" d="M 109.394531 18.265625 C 109.394531 18.265625 109.152344 18.453125 108.707031 18.800781 C 108.484375 18.976562 108.203125 19.191406 107.878906 19.445312 C 107.550781 19.691406 107.15625 19.953125 106.714844 20.253906 C 106.28125 20.5625 105.78125 20.875 105.230469 21.203125 C 104.957031 21.371094 104.671875 21.542969 104.375 21.726562 C 104.078125 21.902344 103.761719 22.066406 103.433594 22.246094 C 103.109375 22.425781 102.773438 22.609375 102.429688 22.796875 C 102.074219 22.972656 101.710938 23.152344 101.335938 23.335938 C 100.59375 23.71875 99.789062 24.058594 98.945312 24.417969 C 98.113281 24.792969 97.210938 25.105469 96.292969 25.464844 C 95.363281 25.800781 94.394531 26.113281 93.390625 26.425781 C 92.382812 26.710938 91.355469 27.03125 90.28125 27.28125 C 89.746094 27.410156 89.207031 27.554688 88.65625 27.671875 C 88.105469 27.78125 87.550781 27.894531 86.992188 28.007812 C 85.871094 28.246094 84.714844 28.410156 83.554688 28.601562 C 82.386719 28.746094 81.207031 28.9375 80.007812 29.019531 C 77.617188 29.269531 75.171875 29.335938 72.730469 29.378906 C 71.496094 29.34375 70.316406 29.359375 69.085938 29.277344 C 68.472656 29.246094 67.867188 29.214844 67.257812 29.175781 C 66.65625 29.125 66.054688 29.074219 65.457031 29.019531 C 64.253906 28.9375 63.078125 28.75 61.910156 28.605469 C 60.746094 28.410156 59.59375 28.246094 58.472656 28.011719 C 57.914062 27.898438 57.359375 27.78125 56.804688 27.671875 C 56.257812 27.554688 55.71875 27.410156 55.183594 27.28125 C 54.109375 27.03125 53.078125 26.710938 52.070312 26.425781 C 51.070312 26.113281 50.097656 25.800781 49.171875 25.46875 C 48.25 25.109375 47.351562 24.796875 46.519531 24.421875 C 45.671875 24.0625 44.867188 23.722656 44.125 23.339844 C 43.75 23.152344 43.386719 22.976562 43.035156 22.800781 C 42.6875 22.609375 42.351562 22.425781 42.027344 22.246094 C 41.703125 22.070312 41.386719 21.902344 41.085938 21.726562 C 40.792969 21.542969 40.503906 21.375 40.234375 21.207031 C 39.683594 20.875 39.179688 20.5625 38.746094 20.257812 C 38.3125 19.953125 37.914062 19.691406 37.582031 19.449219 C 37.253906 19.195312 36.984375 18.976562 36.757812 18.800781 C 36.308594 18.453125 36.070312 18.265625 36.070312 18.265625 C 36.070312 18.265625 36.328125 18.429688 36.804688 18.738281 C 37.039062 18.890625 37.335938 19.082031 37.679688 19.304688 C 38.035156 19.511719 38.441406 19.746094 38.902344 20.011719 C 39.347656 20.289062 39.863281 20.5625 40.433594 20.851562 C 40.710938 21 41.007812 21.152344 41.308594 21.3125 C 41.617188 21.464844 41.941406 21.605469 42.273438 21.761719 C 42.605469 21.917969 42.949219 22.078125 43.304688 22.238281 C 43.664062 22.390625 44.035156 22.542969 44.414062 22.699219 C 44.796875 22.847656 45.179688 23.027344 45.582031 23.179688 C 45.984375 23.328125 46.402344 23.480469 46.824219 23.636719 C 48.511719 24.261719 50.382812 24.832031 52.371094 25.378906 C 53.371094 25.621094 54.394531 25.90625 55.457031 26.109375 C 55.988281 26.222656 56.523438 26.335938 57.0625 26.445312 C 57.605469 26.546875 58.152344 26.644531 58.707031 26.746094 C 59.8125 26.953125 60.949219 27.085938 62.09375 27.253906 C 62.667969 27.316406 63.246094 27.382812 63.828125 27.445312 C 64.410156 27.519531 64.996094 27.566406 65.585938 27.617188 C 66.171875 27.664062 66.761719 27.710938 67.351562 27.757812 C 67.945312 27.78125 68.535156 27.8125 69.132812 27.839844 C 70.308594 27.914062 71.550781 27.886719 72.730469 27.917969 C 75.128906 27.890625 77.53125 27.84375 79.882812 27.617188 C 81.058594 27.535156 82.21875 27.371094 83.375 27.253906 C 84.515625 27.089844 85.652344 26.953125 86.757812 26.746094 C 87.3125 26.648438 87.855469 26.550781 88.402344 26.449219 C 88.941406 26.335938 89.476562 26.222656 90.007812 26.113281 C 91.070312 25.90625 92.09375 25.625 93.09375 25.378906 C 95.085938 24.832031 96.953125 24.265625 98.640625 23.640625 C 99.0625 23.480469 99.476562 23.328125 99.882812 23.179688 C 100.285156 23.027344 100.667969 22.851562 101.050781 22.699219 C 101.429688 22.542969 101.804688 22.390625 102.160156 22.238281 C 102.511719 22.078125 102.859375 21.917969 103.1875 21.761719 C 103.519531 21.609375 103.847656 21.464844 104.152344 21.3125 C 104.460938 21.152344 104.75 21.003906 105.035156 20.851562 C 105.597656 20.5625 106.117188 20.289062 106.5625 20.015625 C 107.023438 19.75 107.425781 19.511719 107.78125 19.304688 C 108.128906 19.082031 108.421875 18.890625 108.660156 18.738281 C 109.140625 18.429688 109.394531 18.265625 109.394531 18.265625 " fill-opacity="1" fill-rule="nonzero"/><path fill="#5284ff" d="M 116.859375 57.007812 C 116.859375 57.007812 116.683594 57.355469 116.355469 58.015625 C 115.988281 58.652344 115.472656 59.609375 114.621094 60.695312 C 112.960938 62.886719 110.117188 65.734375 106.0625 68.214844 C 104.039062 69.457031 101.75 70.644531 99.234375 71.679688 C 96.71875 72.710938 93.996094 73.632812 91.121094 74.359375 C 88.246094 75.078125 85.234375 75.671875 82.144531 76.035156 C 79.054688 76.402344 75.894531 76.59375 72.730469 76.609375 C 69.585938 76.59375 66.402344 76.402344 63.320312 76.035156 C 60.230469 75.675781 57.21875 75.078125 54.34375 74.363281 C 51.46875 73.632812 48.746094 72.710938 46.230469 71.679688 C 43.714844 70.644531 41.421875 69.460938 39.402344 68.214844 C 35.34375 65.734375 32.5 62.886719 30.84375 60.695312 C 29.992188 59.609375 29.472656 58.652344 29.109375 58.015625 C 28.777344 57.355469 28.605469 57.007812 28.605469 57.007812 C 28.605469 57.007812 28.804688 57.34375 29.175781 57.976562 C 29.578125 58.585938 30.175781 59.484375 31.066406 60.519531 C 31.945312 61.554688 33.109375 62.738281 34.578125 63.9375 C 36.046875 65.128906 37.804688 66.34375 39.832031 67.496094 C 41.859375 68.632812 44.144531 69.707031 46.632812 70.667969 C 49.128906 71.609375 51.820312 72.433594 54.648438 73.109375 C 57.484375 73.78125 60.453125 74.28125 63.484375 74.636719 C 66.53125 74.976562 69.613281 75.148438 72.730469 75.144531 C 78.941406 75.160156 85.148438 74.445312 90.816406 73.109375 C 93.644531 72.433594 96.335938 71.609375 98.832031 70.667969 C 101.320312 69.707031 103.605469 68.636719 105.636719 67.496094 C 107.660156 66.347656 109.421875 65.128906 110.886719 63.9375 C 112.355469 62.738281 113.523438 61.554688 114.398438 60.519531 C 115.289062 59.484375 115.882812 58.585938 116.289062 57.976562 C 116.660156 57.34375 116.859375 57.007812 116.859375 57.007812 " fill-opacity="1" fill-rule="nonzero"/><g clip-path="url(#341a6a5820)"><path fill="#5284ff" d="M 78.648438 91.277344 C 78.648438 91.277344 79.074219 91.105469 79.878906 90.785156 C 80.679688 90.460938 81.835938 89.949219 83.289062 89.246094 C 84.738281 88.546875 86.453125 87.613281 88.332031 86.40625 C 90.207031 85.191406 92.242188 83.695312 94.273438 81.851562 C 96.300781 80.015625 98.332031 77.839844 100.160156 75.300781 C 102.015625 72.78125 103.617188 69.878906 104.960938 66.75 C 106.261719 63.601562 107.261719 60.207031 107.886719 56.679688 C 108.523438 53.160156 108.820312 49.496094 108.8125 45.875 C 108.789062 44.953125 108.796875 44.019531 108.757812 43.113281 C 108.699219 42.210938 108.6875 41.304688 108.589844 40.402344 C 108.515625 39.5 108.433594 38.59375 108.304688 37.703125 C 108.203125 36.808594 108.050781 35.921875 107.898438 35.035156 C 107.285156 31.507812 106.285156 28.109375 105 24.957031 C 103.667969 21.824219 102.070312 18.921875 100.210938 16.402344 C 98.378906 13.871094 96.347656 11.695312 94.308594 9.871094 C 92.269531 8.039062 90.230469 6.550781 88.347656 5.351562 C 86.464844 4.148438 84.742188 3.21875 83.289062 2.527344 C 81.835938 1.832031 80.675781 1.324219 79.875 0.996094 C 79.074219 0.675781 78.644531 0.507812 78.644531 0.507812 C 78.644531 0.507812 79.082031 0.652344 79.90625 0.921875 C 80.71875 1.207031 81.921875 1.625 83.40625 2.265625 C 84.898438 2.898438 86.671875 3.757812 88.632812 4.882812 C 90.585938 6.011719 92.730469 7.429688 94.859375 9.238281 C 95.941406 10.121094 96.992188 11.128906 98.054688 12.203125 C 99.085938 13.296875 100.128906 14.464844 101.089844 15.753906 C 103.054688 18.296875 104.78125 21.242188 106.183594 24.457031 C 106.859375 26.070312 107.503906 27.738281 108.007812 29.472656 C 108.289062 30.332031 108.484375 31.21875 108.726562 32.09375 C 108.914062 32.988281 109.140625 33.878906 109.289062 34.785156 C 109.449219 35.691406 109.609375 36.601562 109.71875 37.519531 C 109.851562 38.433594 109.941406 39.355469 110.023438 40.285156 C 110.125 41.203125 110.144531 42.144531 110.207031 43.078125 C 110.25 44.011719 110.253906 44.925781 110.273438 45.847656 C 110.265625 49.601562 109.945312 53.3125 109.277344 56.933594 C 109.117188 57.839844 108.902344 58.730469 108.707031 59.625 C 108.460938 60.5 108.261719 61.386719 107.980469 62.242188 C 107.472656 63.976562 106.8125 65.640625 106.140625 67.253906 C 104.730469 70.464844 102.996094 73.40625 101.035156 75.949219 C 99.101562 78.519531 96.953125 80.679688 94.824219 82.480469 C 92.699219 84.300781 90.566406 85.726562 88.617188 86.867188 C 86.664062 88.003906 84.894531 88.867188 83.40625 89.503906 C 81.925781 90.152344 80.71875 90.574219 79.90625 90.859375 C 79.085938 91.132812 78.648438 91.277344 78.648438 91.277344 " fill-opacity="1" fill-rule="nonzero"/></g><g clip-path="url(#0b8b02c616)"><path fill="#5284ff" d="M 77.707031 91.277344 C 77.707031 91.277344 77.78125 91.214844 77.925781 91.101562 C 78.0625 90.980469 78.285156 90.816406 78.542969 90.570312 C 79.070312 90.097656 79.792969 89.34375 80.605469 88.300781 C 81.417969 87.261719 82.296875 85.90625 83.144531 84.277344 C 83.996094 82.644531 84.824219 80.738281 85.597656 78.609375 C 86.359375 76.476562 87.050781 74.121094 87.675781 71.605469 C 88.292969 69.082031 88.796875 66.386719 89.230469 63.585938 C 89.664062 60.789062 89.964844 57.871094 90.183594 54.90625 C 90.40625 51.941406 90.511719 48.910156 90.503906 45.898438 C 90.507812 42.847656 90.402344 39.855469 90.183594 36.878906 C 89.957031 33.910156 89.660156 30.996094 89.230469 28.199219 C 88.792969 25.398438 88.289062 22.707031 87.671875 20.183594 C 87.050781 17.660156 86.359375 15.308594 85.59375 13.175781 C 84.820312 11.046875 83.992188 9.140625 83.144531 7.507812 C 82.296875 5.878906 81.417969 4.523438 80.605469 3.484375 C 79.792969 2.445312 79.070312 1.6875 78.539062 1.210938 C 78.28125 0.964844 78.058594 0.804688 77.921875 0.683594 C 77.78125 0.566406 77.707031 0.507812 77.707031 0.507812 C 77.707031 0.507812 77.785156 0.5625 77.933594 0.667969 C 78.082031 0.777344 78.316406 0.925781 78.589844 1.148438 C 79.15625 1.59375 79.949219 2.289062 80.824219 3.300781 C 82.585938 5.320312 84.664062 8.601562 86.375 12.875 C 88.109375 17.136719 89.546875 22.332031 90.5 27.988281 C 90.976562 30.820312 91.363281 33.765625 91.589844 36.773438 C 91.828125 39.761719 91.953125 42.847656 91.964844 45.886719 C 91.949219 48.957031 91.828125 52.011719 91.589844 55.011719 C 91.363281 58.019531 90.976562 60.960938 90.5 63.789062 C 89.546875 69.453125 88.105469 74.644531 86.375 78.90625 C 84.664062 83.175781 82.585938 86.464844 80.824219 88.480469 C 79.953125 89.496094 79.15625 90.191406 78.589844 90.632812 C 78.316406 90.859375 78.082031 91.003906 77.9375 91.113281 L 77.707031 91.277344 " fill-opacity="1" fill-rule="nonzero"/></g><g clip-path="url(#f2dedfb829)"><path fill="#5284ff" d="M 66.8125 91.277344 L 65.558594 90.859375 C 64.738281 90.574219 63.539062 90.152344 62.058594 89.507812 C 60.570312 88.867188 58.800781 88.003906 56.847656 86.867188 C 54.894531 85.726562 52.761719 84.300781 50.640625 82.480469 C 48.511719 80.679688 46.359375 78.519531 44.429688 75.949219 C 42.472656 73.40625 40.734375 70.464844 39.324219 67.253906 C 38.648438 65.640625 37.992188 63.976562 37.484375 62.242188 C 37.199219 61.386719 37 60.5 36.757812 59.625 C 36.558594 58.730469 36.347656 57.839844 36.1875 56.933594 C 35.519531 53.3125 35.199219 49.601562 35.1875 45.847656 C 35.210938 44.925781 35.214844 44.011719 35.253906 43.078125 C 35.320312 42.144531 35.335938 41.203125 35.441406 40.285156 C 35.523438 39.355469 35.609375 38.433594 35.746094 37.519531 C 35.855469 36.601562 36.015625 35.691406 36.175781 34.785156 C 36.324219 33.878906 36.550781 32.988281 36.734375 32.09375 C 36.980469 31.21875 37.175781 30.332031 37.457031 29.472656 C 37.957031 27.738281 38.605469 26.070312 39.277344 24.457031 C 40.683594 21.242188 42.410156 18.296875 44.375 15.753906 C 45.335938 14.464844 46.375 13.296875 47.414062 12.203125 C 48.472656 11.128906 49.523438 10.121094 50.605469 9.238281 C 52.738281 7.429688 54.878906 6.011719 56.832031 4.882812 C 58.792969 3.757812 60.570312 2.898438 62.058594 2.265625 C 63.542969 1.625 64.738281 1.207031 65.558594 0.921875 C 66.382812 0.652344 66.816406 0.507812 66.816406 0.507812 C 66.816406 0.507812 66.390625 0.675781 65.585938 0.996094 C 64.789062 1.324219 63.625 1.832031 62.175781 2.527344 C 60.726562 3.21875 59 4.148438 57.117188 5.351562 C 55.234375 6.550781 53.191406 8.039062 51.152344 9.871094 C 49.117188 11.695312 47.082031 13.871094 45.25 16.402344 C 43.390625 18.921875 41.796875 21.824219 40.460938 24.957031 C 39.171875 28.109375 38.179688 31.507812 37.566406 35.035156 C 37.410156 35.921875 37.257812 36.808594 37.15625 37.703125 C 37.03125 38.59375 36.949219 39.5 36.875 40.402344 C 36.773438 41.304688 36.765625 42.210938 36.707031 43.113281 C 36.664062 44.019531 36.671875 44.953125 36.652344 45.875 C 36.644531 49.496094 36.941406 53.160156 37.574219 56.679688 C 38.203125 60.207031 39.203125 63.601562 40.503906 66.75 C 41.84375 69.878906 43.449219 72.78125 45.300781 75.300781 C 47.132812 77.839844 49.164062 80.015625 51.191406 81.851562 C 53.222656 83.695312 55.253906 85.191406 57.128906 86.40625 C 59.007812 87.613281 60.726562 88.546875 62.175781 89.246094 C 63.625 89.949219 64.785156 90.460938 65.585938 90.785156 C 66.386719 91.105469 66.8125 91.277344 66.8125 91.277344 " fill-opacity="1" fill-rule="nonzero"/></g><g clip-path="url(#0fabb0304c)"><path fill="#5284ff" d="M 67.757812 91.277344 C 67.757812 91.277344 67.675781 91.222656 67.527344 91.113281 C 67.382812 91.003906 67.148438 90.859375 66.871094 90.632812 C 66.308594 90.191406 65.515625 89.496094 64.636719 88.480469 C 62.875 86.464844 60.796875 83.175781 59.089844 78.90625 C 57.359375 74.644531 55.917969 69.453125 54.964844 63.789062 C 54.488281 60.960938 54.101562 58.019531 53.871094 55.011719 C 53.636719 52.007812 53.511719 48.957031 53.496094 45.882812 C 53.507812 42.847656 53.632812 39.761719 53.871094 36.773438 C 54.101562 33.765625 54.484375 30.820312 54.964844 27.988281 C 55.914062 22.332031 57.355469 17.136719 59.089844 12.875 C 60.796875 8.601562 62.875 5.320312 64.636719 3.300781 C 65.515625 2.289062 66.3125 1.59375 66.871094 1.148438 C 67.148438 0.925781 67.382812 0.777344 67.527344 0.667969 C 67.679688 0.5625 67.757812 0.507812 67.757812 0.507812 C 67.757812 0.507812 67.683594 0.566406 67.542969 0.683594 C 67.402344 0.804688 67.183594 0.964844 66.921875 1.210938 C 66.390625 1.6875 65.671875 2.445312 64.855469 3.484375 C 64.042969 4.523438 63.167969 5.878906 62.320312 7.507812 C 61.472656 9.140625 60.640625 11.046875 59.871094 13.175781 C 59.105469 15.308594 58.410156 17.660156 57.792969 20.183594 C 57.171875 22.707031 56.667969 25.398438 56.234375 28.199219 C 55.796875 30.996094 55.507812 33.910156 55.28125 36.878906 C 55.0625 39.855469 54.957031 42.847656 54.960938 45.898438 C 54.953125 48.910156 55.0625 51.941406 55.277344 54.90625 C 55.503906 57.871094 55.796875 60.789062 56.234375 63.585938 C 56.667969 66.386719 57.171875 69.082031 57.789062 71.605469 C 58.410156 74.121094 59.105469 76.476562 59.867188 78.609375 C 60.636719 80.738281 61.46875 82.644531 62.316406 84.277344 C 63.167969 85.90625 64.042969 87.261719 64.855469 88.300781 C 65.671875 89.34375 66.390625 90.097656 66.917969 90.570312 C 67.179688 90.816406 67.398438 90.980469 67.542969 91.101562 C 67.683594 91.214844 67.757812 91.277344 67.757812 91.277344 " fill-opacity="1" fill-rule="nonzero"/></g></svg>