<svg xmlns="http://www.w3.org/2000/svg" xmlns:xlink="http://www.w3.org/1999/xlink" width="1200" zoomAndPan="magnify" viewBox="0 0 900 749.999995" height="1000" preserveAspectRatio="xMidYMid meet" version="1.0"><path fill="#56aeff" d="M 781.027344 425.070312 L 672.925781 316.929688 L 715.585938 274.253906 L 746.578125 274.253906 C 755.894531 282.992188 796.003906 323.753906 794.648438 376.265625 C 794.214844 392.835938 789.65625 409.128906 781.027344 425.070312 Z M 755.765625 459.265625 L 646.882812 350.347656 L 577.28125 350.347656 L 533.59375 394.050781 L 381.667969 394.050781 L 302.859375 315.21875 L 374.984375 315.21875 C 376.308594 323.5625 383.472656 329.957031 392.183594 329.957031 C 401.835938 329.957031 409.660156 322.128906 409.660156 312.476562 C 409.660156 302.824219 401.835938 294.992188 392.183594 294.992188 C 383.472656 294.992188 376.308594 301.386719 374.984375 309.730469 L 216.507812 309.730469 L 287.097656 239.125 L 417.089844 239.125 L 497.617188 319.671875 L 667.917969 319.671875 L 778.21875 430.015625 C 772.316406 439.914062 764.824219 449.671875 755.765625 459.265625 Z M 725.230469 486.546875 L 722.453125 488.699219 L 720.96875 491.847656 C 720.730469 492.34375 697.011719 541.628906 648.65625 560.976562 L 635.390625 566.285156 L 662.453125 635.378906 C 666.429688 645.539062 659.167969 651.167969 656.847656 652.652344 C 652.042969 655.71875 644.757812 656.757812 638.734375 650.460938 C 633.035156 644.523438 628.425781 639.457031 625.015625 635.398438 C 572.445312 572.832031 504.039062 555.5 449.074219 541.578125 C 399.253906 528.960938 359.910156 518.996094 343.488281 482.90625 L 339.550781 474.265625 L 330.0625 474.484375 C 329.132812 474.507812 236.699219 476.253906 177.59375 446.894531 C 155.464844 435.902344 138.148438 418.378906 127 397.179688 L 220.109375 397.179688 L 269.0625 446.148438 L 452.589844 446.148438 L 488.1875 481.757812 L 459.816406 510.140625 L 448.445312 510.140625 C 447.121094 501.800781 439.960938 495.402344 431.25 495.402344 C 421.59375 495.402344 413.773438 503.226562 413.773438 512.882812 C 413.773438 522.539062 421.59375 530.363281 431.25 530.363281 C 439.960938 530.363281 447.121094 523.964844 448.445312 515.625 L 462.082031 515.625 L 493.199219 484.5 L 533.59375 484.5 L 585.355469 536.277344 L 624.4375 536.277344 C 625.761719 544.617188 632.921875 551.015625 641.640625 551.015625 C 651.289062 551.015625 659.117188 543.191406 659.117188 533.535156 C 659.117188 523.882812 651.289062 516.054688 641.640625 516.054688 C 632.921875 516.054688 625.765625 522.453125 624.4375 530.792969 L 587.621094 530.792969 L 535.867188 479.019531 L 493.199219 479.019531 L 454.863281 440.667969 L 340.550781 440.667969 L 381.667969 399.539062 L 533.59375 399.539062 L 575.742188 441.695312 L 624.4375 441.695312 C 625.765625 450.039062 632.921875 456.433594 641.640625 456.433594 C 651.289062 456.433594 659.117188 448.605469 659.117188 438.957031 C 659.117188 429.300781 651.289062 421.476562 641.640625 421.476562 C 632.921875 421.476562 625.765625 427.867188 624.4375 436.214844 L 578.011719 436.214844 L 538.601562 396.796875 L 579.550781 355.832031 L 644.617188 355.832031 L 751.957031 463.210938 C 744.113281 471.101562 735.203125 478.882812 725.230469 486.546875 Z M 114.609375 316.46875 C 114.679688 316.046875 114.773438 315.636719 114.84375 315.21875 L 295.105469 315.21875 L 376.65625 396.796875 L 332.796875 440.667969 L 271.332031 440.667969 L 222.378906 391.699219 L 124.304688 391.699219 C 113.910156 369.238281 110.167969 343.136719 114.609375 316.46875 Z M 246.824219 203.078125 L 253.257812 202.210938 L 256.882812 196.84375 C 260.171875 191.976562 331.0625 89.574219 444.835938 117.457031 L 370.492188 191.820312 L 326.628906 191.820312 L 284.824219 233.636719 L 284.023438 234.445312 L 208.757812 309.730469 L 115.925781 309.730469 C 128.550781 251.925781 176.953125 212.269531 246.824219 203.078125 Z M 490.667969 134.996094 L 495.882812 133.613281 C 497.066406 133.304688 614.734375 102.875 685.925781 153.628906 C 695.328125 160.335938 703.5 168.273438 710.488281 177.34375 L 654.207031 233.636719 L 573.859375 233.636719 C 572.535156 225.296875 565.371094 218.902344 556.65625 218.902344 C 547.007812 218.902344 539.183594 226.730469 539.183594 236.382812 C 539.183594 246.035156 547.007812 253.863281 556.65625 253.863281 C 565.371094 253.863281 572.535156 247.464844 573.859375 239.125 L 656.480469 239.125 L 713.761719 181.820312 C 728.5625 203.007812 737.257812 230 739.640625 262.597656 L 740.078125 268.597656 L 740.289062 268.773438 L 713.316406 268.773438 L 667.917969 314.191406 L 499.882812 314.191406 L 422.101562 236.382812 L 477.953125 180.511719 L 588.804688 180.511719 C 590.125 188.851562 597.289062 195.25 606.003906 195.25 C 615.65625 195.25 623.476562 187.425781 623.476562 177.769531 C 623.476562 168.113281 615.65625 160.292969 606.003906 160.292969 C 597.289062 160.292969 590.125 166.6875 588.804688 175.027344 L 475.6875 175.027344 L 417.089844 233.636719 L 292.578125 233.636719 L 328.898438 197.308594 L 372.761719 197.308594 L 450.96875 119.074219 C 462.199219 122.253906 473.8125 126.671875 485.828125 132.609375 Z M 767.855469 254.765625 C 762.585938 199.199219 740.664062 157.308594 702.625 130.191406 C 628.957031 77.667969 519.355469 98.632812 493.796875 104.503906 C 412.125 66.222656 345.894531 88.375 304.414062 114.058594 C 268.871094 136.066406 245.632812 163.882812 236.878906 175.433594 C 140.175781 190.5625 95.625 255.3125 86.226562 311.734375 C 75.011719 379.082031 106.585938 443.757812 164.792969 472.667969 C 219.4375 499.816406 295.496094 503.027344 321.621094 503.289062 C 345.488281 545.035156 392.457031 556.9375 442.007812 569.480469 C 495.625 583.0625 556.390625 598.453125 602.984375 653.914062 C 606.800781 658.453125 611.832031 663.988281 617.949219 670.375 C 626.535156 679.34375 637.582031 683.957031 648.851562 683.957031 C 656.832031 683.957031 664.929688 681.636719 672.34375 676.902344 C 690.171875 665.507812 696.960938 644.601562 689.242188 624.882812 L 672.34375 581.726562 C 715.757812 559.09375 739.175781 519.148438 745.375 507.347656 C 795.945312 467.734375 822.199219 423.902344 823.417969 377.011719 C 825.019531 315.179688 782.207031 268.601562 767.855469 254.765625 " fill-opacity="1" fill-rule="nonzero"/></svg>