<svg xmlns="http://www.w3.org/2000/svg" xmlns:xlink="http://www.w3.org/1999/xlink" width="1200" zoomAndPan="magnify" viewBox="0 0 900 749.999995" height="1000" preserveAspectRatio="xMidYMid meet" version="1.0"><defs><clipPath id="6d9196edde"><path d="M 197 185 L 694 185 L 694 587.492188 L 197 587.492188 Z M 197 185 " clip-rule="nonzero"/></clipPath></defs><g clip-path="url(#6d9196edde)"><path fill="#56aeff" d="M 664.902344 413.972656 L 592.476562 341.53125 L 621.054688 312.941406 L 641.820312 312.941406 C 648.0625 318.792969 674.9375 346.101562 674.027344 381.277344 C 673.738281 392.378906 670.683594 403.292969 664.902344 413.972656 Z M 647.976562 436.878906 L 575.023438 363.917969 L 528.394531 363.917969 L 499.121094 393.191406 L 397.332031 393.191406 L 344.527344 340.382812 L 392.851562 340.382812 C 393.742188 345.972656 398.539062 350.253906 404.378906 350.253906 C 410.84375 350.253906 416.085938 345.011719 416.085938 338.546875 C 416.085938 332.078125 410.84375 326.835938 404.378906 326.835938 C 398.539062 326.835938 393.742188 331.117188 392.851562 336.707031 L 286.675781 336.707031 L 333.96875 289.410156 L 421.066406 289.410156 L 475.019531 343.367188 L 589.117188 343.367188 L 663.019531 417.285156 C 659.066406 423.917969 654.046875 430.453125 647.976562 436.878906 Z M 627.519531 455.15625 L 625.660156 456.597656 L 624.660156 458.707031 C 624.503906 459.039062 608.609375 492.054688 576.210938 505.015625 L 567.328125 508.570312 L 585.457031 554.855469 C 588.121094 561.664062 583.253906 565.433594 581.703125 566.429688 C 578.484375 568.484375 573.601562 569.179688 569.566406 564.960938 C 565.746094 560.984375 562.65625 557.589844 560.375 554.871094 C 525.152344 512.957031 479.320312 501.347656 442.492188 492.023438 C 409.113281 483.570312 382.753906 476.894531 371.75 452.71875 L 369.113281 446.929688 L 362.753906 447.074219 C 362.132812 447.089844 300.203125 448.261719 260.601562 428.59375 C 245.773438 421.230469 234.171875 409.492188 226.703125 395.289062 L 289.085938 395.289062 L 321.886719 428.09375 L 444.851562 428.09375 L 468.699219 451.949219 L 449.691406 470.960938 L 442.074219 470.960938 C 441.1875 465.375 436.386719 461.085938 430.550781 461.085938 C 424.082031 461.085938 418.839844 466.328125 418.839844 472.796875 C 418.839844 479.265625 424.082031 484.507812 430.550781 484.507812 C 436.386719 484.507812 441.1875 480.222656 442.074219 474.636719 L 451.210938 474.636719 L 472.054688 453.785156 L 499.121094 453.785156 L 533.804688 488.472656 L 559.988281 488.472656 C 560.875 494.058594 565.671875 498.34375 571.511719 498.34375 C 577.976562 498.34375 583.222656 493.101562 583.222656 486.632812 C 583.222656 480.167969 577.976562 474.921875 571.511719 474.921875 C 565.671875 474.921875 560.878906 479.207031 559.988281 484.796875 L 535.320312 484.796875 L 500.644531 450.113281 L 472.054688 450.113281 L 446.371094 424.421875 L 369.78125 424.421875 L 397.332031 396.867188 L 499.121094 396.867188 L 527.359375 425.109375 L 559.988281 425.109375 C 560.878906 430.699219 565.671875 434.980469 571.511719 434.980469 C 577.976562 434.980469 583.222656 429.738281 583.222656 423.273438 C 583.222656 416.804688 577.976562 411.5625 571.511719 411.5625 C 565.671875 411.5625 560.878906 415.847656 559.988281 421.4375 L 528.882812 421.4375 L 502.476562 395.03125 L 529.914062 367.589844 L 573.507812 367.589844 L 645.425781 439.523438 C 640.171875 444.808594 634.199219 450.023438 627.519531 455.15625 Z M 218.402344 341.21875 C 218.449219 340.9375 218.511719 340.664062 218.558594 340.382812 L 339.335938 340.382812 L 393.972656 395.03125 L 364.589844 424.421875 L 323.40625 424.421875 L 290.605469 391.617188 L 224.898438 391.617188 C 217.933594 376.570312 215.425781 359.085938 218.402344 341.21875 Z M 306.984375 265.261719 L 311.296875 264.679688 L 313.726562 261.082031 C 315.929688 257.824219 363.425781 189.222656 439.652344 207.90625 L 389.84375 257.71875 L 360.457031 257.71875 L 332.445312 285.734375 L 331.910156 286.273438 L 281.480469 336.707031 L 219.28125 336.707031 C 227.742188 297.984375 260.171875 271.417969 306.984375 265.261719 Z M 470.359375 219.652344 L 473.855469 218.726562 C 474.648438 218.519531 553.488281 198.132812 601.183594 232.132812 C 607.484375 236.628906 612.957031 241.945312 617.640625 248.019531 L 579.929688 285.734375 L 526.101562 285.734375 C 525.214844 280.144531 520.410156 275.859375 514.574219 275.859375 C 508.109375 275.859375 502.867188 281.105469 502.867188 287.574219 C 502.867188 294.039062 508.109375 299.28125 514.574219 299.28125 C 520.410156 299.28125 525.214844 294.996094 526.101562 289.410156 L 581.457031 289.410156 L 619.835938 251.019531 C 629.75 265.210938 635.574219 283.296875 637.171875 305.132812 L 637.46875 309.152344 L 637.605469 309.269531 L 619.535156 309.269531 L 589.117188 339.695312 L 476.535156 339.695312 L 424.421875 287.574219 L 461.84375 250.144531 L 536.113281 250.144531 C 536.996094 255.730469 541.796875 260.015625 547.636719 260.015625 C 554.101562 260.015625 559.34375 254.773438 559.34375 248.308594 C 559.34375 241.839844 554.101562 236.597656 547.636719 236.597656 C 541.796875 236.597656 536.996094 240.882812 536.113281 246.46875 L 460.324219 246.46875 L 421.066406 285.734375 L 337.640625 285.734375 L 361.976562 261.394531 L 391.363281 261.394531 L 443.761719 208.988281 C 451.285156 211.117188 459.066406 214.074219 467.117188 218.050781 Z M 656.074219 299.886719 C 652.546875 262.664062 637.859375 234.597656 612.371094 216.433594 C 563.015625 181.25 489.582031 195.292969 472.457031 199.226562 C 417.738281 173.582031 373.363281 188.421875 345.570312 205.625 C 321.757812 220.371094 306.1875 239.003906 300.324219 246.742188 C 235.53125 256.875 205.683594 300.253906 199.386719 338.050781 C 191.871094 383.167969 213.027344 426.492188 252.023438 445.859375 C 288.636719 464.046875 339.59375 466.195312 357.101562 466.371094 C 373.089844 494.339844 404.5625 502.308594 437.757812 510.714844 C 473.683594 519.8125 514.394531 530.121094 545.613281 567.277344 C 548.171875 570.316406 551.542969 574.023438 555.640625 578.300781 C 561.390625 584.308594 568.792969 587.402344 576.34375 587.402344 C 581.691406 587.402344 587.117188 585.847656 592.085938 582.675781 C 604.03125 575.042969 608.578125 561.035156 603.40625 547.824219 L 592.085938 518.917969 C 621.171875 503.753906 636.863281 476.996094 641.015625 469.089844 C 674.898438 442.554688 692.488281 413.1875 693.304688 381.777344 C 694.375 340.359375 665.691406 309.152344 656.074219 299.886719 " fill-opacity="1" fill-rule="nonzero"/></g></svg>