<svg xmlns="http://www.w3.org/2000/svg" xmlns:xlink="http://www.w3.org/1999/xlink" width="1200" zoomAndPan="magnify" viewBox="0 0 900 749.999995" height="1000" preserveAspectRatio="xMidYMid meet" version="1.0"><defs><g/><clipPath id="b9d29b208c"><path d="M 234 132 L 666 132 L 666 481.976562 L 234 481.976562 Z M 234 132 " clip-rule="nonzero"/></clipPath></defs><g clip-path="url(#b9d29b208c)"><path fill="#56aeff" d="M 641.105469 331.089844 L 578.082031 268.09375 L 602.953125 243.234375 L 621.023438 243.234375 C 626.453125 248.324219 649.839844 272.070312 649.046875 302.65625 C 648.796875 312.3125 646.136719 321.800781 641.105469 331.089844 Z M 626.378906 351.007812 L 562.898438 287.5625 L 522.324219 287.5625 L 496.851562 313.019531 L 408.28125 313.019531 L 362.332031 267.097656 L 404.382812 267.097656 C 405.15625 271.957031 409.332031 275.683594 414.410156 275.683594 C 420.039062 275.683594 424.597656 271.121094 424.597656 265.5 C 424.597656 259.875 420.039062 255.316406 414.410156 255.316406 C 409.332031 255.316406 405.15625 259.042969 404.382812 263.902344 L 311.992188 263.902344 L 353.144531 222.773438 L 428.929688 222.773438 L 475.878906 269.691406 L 575.164062 269.691406 L 639.46875 333.96875 C 636.027344 339.734375 631.660156 345.417969 626.378906 351.007812 Z M 608.578125 366.902344 L 606.957031 368.152344 L 606.089844 369.988281 C 605.953125 370.277344 592.125 398.988281 563.933594 410.257812 L 556.199219 413.351562 L 571.976562 453.597656 C 574.296875 459.519531 570.0625 462.796875 568.710938 463.660156 C 565.910156 465.449219 561.660156 466.054688 558.148438 462.386719 C 554.828125 458.925781 552.136719 455.972656 550.152344 453.609375 C 519.503906 417.164062 479.621094 407.066406 447.578125 398.957031 C 418.53125 391.609375 395.59375 385.800781 386.019531 364.78125 L 383.726562 359.746094 L 378.191406 359.875 C 377.652344 359.886719 323.761719 360.902344 289.304688 343.800781 C 276.402344 337.398438 266.308594 327.191406 259.808594 314.839844 L 314.089844 314.839844 L 342.632812 343.367188 L 449.628906 343.367188 L 470.378906 364.113281 L 453.839844 380.644531 L 447.210938 380.644531 C 446.441406 375.785156 442.265625 372.058594 437.183594 372.058594 C 431.558594 372.058594 426.996094 376.617188 426.996094 382.242188 C 426.996094 387.867188 431.558594 392.425781 437.183594 392.425781 C 442.265625 392.425781 446.441406 388.699219 447.210938 383.839844 L 455.160156 383.839844 L 473.300781 365.710938 L 496.851562 365.710938 L 527.03125 395.871094 L 549.8125 395.871094 C 550.585938 400.730469 554.761719 404.457031 559.84375 404.457031 C 565.46875 404.457031 570.035156 399.898438 570.035156 394.273438 C 570.035156 388.648438 565.46875 384.089844 559.84375 384.089844 C 554.761719 384.089844 550.589844 387.816406 549.8125 392.675781 L 528.351562 392.675781 L 498.179688 362.515625 L 473.300781 362.515625 L 450.953125 340.175781 L 384.308594 340.175781 L 408.28125 316.214844 L 496.851562 316.214844 L 521.425781 340.773438 L 549.8125 340.773438 C 550.589844 345.632812 554.761719 349.359375 559.84375 349.359375 C 565.46875 349.359375 570.035156 344.800781 570.035156 339.175781 C 570.035156 333.550781 565.46875 328.996094 559.84375 328.996094 C 554.761719 328.996094 550.589844 332.71875 549.8125 337.582031 L 522.746094 337.582031 L 499.769531 314.617188 L 523.644531 290.757812 L 561.578125 290.757812 L 624.160156 353.308594 C 619.585938 357.902344 614.390625 362.4375 608.578125 366.902344 Z M 252.585938 267.824219 C 252.625 267.578125 252.679688 267.339844 252.722656 267.097656 L 357.8125 267.097656 L 405.359375 314.617188 L 379.789062 340.175781 L 343.953125 340.175781 L 315.414062 311.648438 L 258.234375 311.648438 C 252.175781 298.566406 249.996094 283.359375 252.585938 267.824219 Z M 329.664062 201.773438 L 333.417969 201.269531 L 335.53125 198.140625 C 337.445312 195.308594 378.777344 135.652344 445.105469 151.898438 L 401.761719 195.214844 L 376.191406 195.214844 L 351.820312 219.574219 L 351.351562 220.046875 L 307.472656 263.902344 L 253.351562 263.902344 C 260.714844 230.230469 288.933594 207.125 329.664062 201.773438 Z M 471.828125 162.113281 L 474.867188 161.308594 C 475.558594 161.128906 544.15625 143.402344 585.660156 172.96875 C 591.144531 176.875 595.90625 181.496094 599.980469 186.78125 L 567.167969 219.574219 L 520.328125 219.574219 C 519.554688 214.714844 515.378906 210.992188 510.296875 210.992188 C 504.671875 210.992188 500.113281 215.550781 500.113281 221.175781 C 500.113281 226.796875 504.671875 231.355469 510.296875 231.355469 C 515.378906 231.355469 519.554688 227.628906 520.328125 222.773438 L 568.496094 222.773438 L 601.890625 189.390625 C 610.519531 201.730469 615.585938 217.457031 616.976562 236.445312 L 617.234375 239.9375 L 617.355469 240.042969 L 601.628906 240.042969 L 575.164062 266.5 L 477.199219 266.5 L 431.851562 221.175781 L 464.414062 188.628906 L 529.039062 188.628906 C 529.808594 193.488281 533.988281 197.214844 539.066406 197.214844 C 544.695312 197.214844 549.253906 192.65625 549.253906 187.03125 C 549.253906 181.40625 544.695312 176.851562 539.066406 176.851562 C 533.988281 176.851562 529.808594 180.574219 529.039062 185.433594 L 463.09375 185.433594 L 428.929688 219.574219 L 356.339844 219.574219 L 377.515625 198.414062 L 403.085938 198.414062 L 448.679688 152.839844 C 455.226562 154.691406 462 157.265625 469.003906 160.722656 Z M 633.425781 231.882812 C 630.355469 199.515625 617.574219 175.109375 595.398438 159.3125 C 552.449219 128.71875 488.550781 140.933594 473.652344 144.351562 C 426.035156 122.050781 387.421875 134.957031 363.242188 149.917969 C 342.519531 162.738281 328.972656 178.941406 323.867188 185.671875 C 267.488281 194.480469 241.515625 232.203125 236.039062 265.070312 C 229.5 304.300781 247.90625 341.972656 281.839844 358.816406 C 313.699219 374.632812 358.039062 376.5 373.273438 376.652344 C 387.1875 400.972656 414.570312 407.902344 443.457031 415.210938 C 474.714844 423.125 510.140625 432.089844 537.308594 464.398438 C 539.53125 467.039062 542.464844 470.265625 546.03125 473.984375 C 551.035156 479.210938 557.476562 481.898438 564.046875 481.898438 C 568.699219 481.898438 573.421875 480.546875 577.742188 477.789062 C 588.136719 471.148438 592.09375 458.972656 587.597656 447.484375 L 577.742188 422.34375 C 603.054688 409.160156 616.707031 385.890625 620.320312 379.015625 C 649.804688 355.941406 665.109375 330.40625 665.820312 303.09375 C 666.753906 267.074219 641.792969 239.941406 633.425781 231.882812 " fill-opacity="1" fill-rule="nonzero"/></g><g fill="#011c43" fill-opacity="1"><g transform="translate(-1.460908, 591.544044)"><g><path d="M 37.0625 0.8125 C 30.375 0.8125 24.539062 -0.554688 19.5625 -3.296875 C 14.59375 -6.035156 10.765625 -9.90625 8.078125 -14.90625 C 5.398438 -19.914062 4.0625 -25.707031 4.0625 -32.28125 C 4.0625 -38.78125 5.398438 -44.515625 8.078125 -49.484375 C 10.765625 -54.460938 14.59375 -58.320312 19.5625 -61.0625 C 24.539062 -63.8125 30.375 -65.1875 37.0625 -65.1875 C 41.28125 -65.1875 45.363281 -64.550781 49.3125 -63.28125 C 53.257812 -62.019531 56.441406 -60.300781 58.859375 -58.125 L 53.703125 -46.109375 C 48.453125 -49.898438 43.023438 -51.796875 37.421875 -51.796875 C 32.242188 -51.796875 28.265625 -50.15625 25.484375 -46.875 C 22.710938 -43.59375 21.328125 -38.726562 21.328125 -32.28125 C 21.328125 -25.769531 22.710938 -20.851562 25.484375 -17.53125 C 28.265625 -14.21875 32.242188 -12.5625 37.421875 -12.5625 C 43.023438 -12.5625 48.453125 -14.460938 53.703125 -18.265625 L 58.859375 -6.234375 C 56.441406 -4.066406 53.257812 -2.347656 49.3125 -1.078125 C 45.363281 0.179688 41.28125 0.8125 37.0625 0.8125 Z M 37.0625 0.8125 "/></g></g></g><g fill="#011c43" fill-opacity="1"><g transform="translate(68.23399, 591.544044)"><g><path d="M 61.75 0 L 43.75 0 L 35.4375 -21.421875 C 34.476562 -23.835938 32.21875 -25.046875 28.65625 -25.046875 L 22.515625 -25.046875 L 22.515625 0 L 5.78125 0 L 5.78125 -64.375 L 35.703125 -64.375 C 43.484375 -64.375 49.332031 -62.695312 53.25 -59.34375 C 57.164062 -56 59.125 -51.222656 59.125 -45.015625 C 59.125 -40.679688 57.960938 -36.929688 55.640625 -33.765625 C 53.328125 -30.597656 50.054688 -28.351562 45.828125 -27.03125 C 47.640625 -26.664062 49.269531 -25.820312 50.71875 -24.5 C 52.164062 -23.175781 53.3125 -21.398438 54.15625 -19.171875 Z M 33 -37.703125 C 36.613281 -37.703125 39.234375 -38.257812 40.859375 -39.375 C 42.484375 -40.488281 43.296875 -42.21875 43.296875 -44.5625 C 43.296875 -47.039062 42.5 -48.820312 40.90625 -49.90625 C 39.3125 -50.988281 36.675781 -51.53125 33 -51.53125 L 22.328125 -51.53125 L 22.328125 -37.703125 Z M 33 -37.703125 "/></g></g></g><g fill="#011c43" fill-opacity="1"><g transform="translate(140.550281, 591.544044)"><g><path d="M 5.78125 0 L 5.78125 -64.375 L 51.71875 -64.375 L 51.71875 -51.34375 L 22.328125 -51.34375 L 22.328125 -39.234375 L 49.8125 -39.234375 L 49.8125 -26.21875 L 22.328125 -26.21875 L 22.328125 -13.015625 L 51.71875 -13.015625 L 51.71875 0 Z M 5.78125 0 "/></g></g></g><g fill="#011c43" fill-opacity="1"><g transform="translate(202.923392, 591.544044)"><g><path d="M 54.875 0 L 49.1875 -13.296875 L 20.609375 -13.296875 L 14.921875 0 L -2.078125 0 L 28.03125 -64.375 L 41.40625 -64.375 L 71.609375 0 Z M 26.125 -26.03125 L 43.671875 -26.03125 L 34.890625 -46.375 Z M 26.125 -26.03125 "/></g></g></g><g fill="#011c43" fill-opacity="1"><g transform="translate(280.211251, 591.544044)"><g><path d="M 20.25 0 L 20.25 -50.625 L 1.078125 -50.625 L 1.078125 -64.375 L 56.59375 -64.375 L 56.59375 -50.625 L 37.421875 -50.625 L 37.421875 0 Z M 20.25 0 "/></g></g></g><g fill="#011c43" fill-opacity="1"><g transform="translate(345.657669, 591.544044)"><g><path d="M 5.78125 0 L 5.78125 -64.375 L 22.78125 -64.375 L 22.78125 0 Z M 5.78125 0 "/></g></g></g><g fill="#011c43" fill-opacity="1"><g transform="translate(381.997657, 591.544044)"><g><path d="M 52.890625 -64.375 L 69.96875 -64.375 L 40.6875 0 L 27.21875 0 L -2.078125 -64.375 L 15.546875 -64.375 L 34.078125 -21.15625 Z M 52.890625 -64.375 "/></g></g></g><g fill="#011c43" fill-opacity="1"><g transform="translate(457.658476, 591.544044)"><g><path d="M 5.78125 0 L 5.78125 -64.375 L 51.71875 -64.375 L 51.71875 -51.34375 L 22.328125 -51.34375 L 22.328125 -39.234375 L 49.8125 -39.234375 L 49.8125 -26.21875 L 22.328125 -26.21875 L 22.328125 -13.015625 L 51.71875 -13.015625 L 51.71875 0 Z M 5.78125 0 "/></g></g></g><g fill="#011c43" fill-opacity="1"><g transform="translate(520.031567, 591.544044)"><g/></g></g><g fill="#011c43" fill-opacity="1"><g transform="translate(554.021336, 591.544044)"><g><path d="M 5.78125 0 L 5.78125 -64.375 L 50.71875 -64.375 L 50.71875 -51.078125 L 22.515625 -51.078125 L 22.515625 -39.328125 L 48.90625 -39.328125 L 48.90625 -26.125 L 22.515625 -26.125 L 22.515625 0 Z M 5.78125 0 "/></g></g></g><g fill="#011c43" fill-opacity="1"><g transform="translate(614.586591, 591.544044)"><g><path d="M 36.4375 0.8125 C 29.863281 0.8125 24.132812 -0.523438 19.25 -3.203125 C 14.375 -5.890625 10.625 -9.734375 8 -14.734375 C 5.375 -19.734375 4.0625 -25.582031 4.0625 -32.28125 C 4.0625 -38.96875 5.390625 -44.78125 8.046875 -49.71875 C 10.703125 -54.664062 14.453125 -58.476562 19.296875 -61.15625 C 24.148438 -63.84375 29.863281 -65.1875 36.4375 -65.1875 C 43 -65.1875 48.707031 -63.84375 53.5625 -61.15625 C 58.414062 -58.476562 62.140625 -54.664062 64.734375 -49.71875 C 67.328125 -44.78125 68.625 -38.96875 68.625 -32.28125 C 68.625 -25.582031 67.328125 -19.734375 64.734375 -14.734375 C 62.140625 -9.734375 58.414062 -5.890625 53.5625 -3.203125 C 48.707031 -0.523438 43 0.8125 36.4375 0.8125 Z M 36.4375 -12.109375 C 41.257812 -12.109375 45.039062 -13.828125 47.78125 -17.265625 C 50.519531 -20.703125 51.890625 -25.707031 51.890625 -32.28125 C 51.890625 -38.78125 50.519531 -43.734375 47.78125 -47.140625 C 45.039062 -50.546875 41.257812 -52.25 36.4375 -52.25 C 31.613281 -52.25 27.84375 -50.5625 25.125 -47.1875 C 22.414062 -43.8125 21.0625 -38.84375 21.0625 -32.28125 C 21.0625 -25.644531 22.414062 -20.625 25.125 -17.21875 C 27.84375 -13.8125 31.613281 -12.109375 36.4375 -12.109375 Z M 36.4375 -12.109375 "/></g></g></g><g fill="#011c43" fill-opacity="1"><g transform="translate(695.128608, 591.544044)"><g><path d="M 61.75 0 L 43.75 0 L 35.4375 -21.421875 C 34.476562 -23.835938 32.21875 -25.046875 28.65625 -25.046875 L 22.515625 -25.046875 L 22.515625 0 L 5.78125 0 L 5.78125 -64.375 L 35.703125 -64.375 C 43.484375 -64.375 49.332031 -62.695312 53.25 -59.34375 C 57.164062 -56 59.125 -51.222656 59.125 -45.015625 C 59.125 -40.679688 57.960938 -36.929688 55.640625 -33.765625 C 53.328125 -30.597656 50.054688 -28.351562 45.828125 -27.03125 C 47.640625 -26.664062 49.269531 -25.820312 50.71875 -24.5 C 52.164062 -23.175781 53.3125 -21.398438 54.15625 -19.171875 Z M 33 -37.703125 C 36.613281 -37.703125 39.234375 -38.257812 40.859375 -39.375 C 42.484375 -40.488281 43.296875 -42.21875 43.296875 -44.5625 C 43.296875 -47.039062 42.5 -48.820312 40.90625 -49.90625 C 39.3125 -50.988281 36.675781 -51.53125 33 -51.53125 L 22.328125 -51.53125 L 22.328125 -37.703125 Z M 33 -37.703125 "/></g></g></g><g fill="#011c43" fill-opacity="1"><g transform="translate(767.444925, 591.544044)"><g><path d="M 62.921875 -36.34375 L 62.921875 -4.0625 C 59.484375 -2.5 55.640625 -1.296875 51.390625 -0.453125 C 47.140625 0.390625 42.785156 0.8125 38.328125 0.8125 C 31.335938 0.8125 25.265625 -0.507812 20.109375 -3.15625 C 14.960938 -5.8125 11 -9.625 8.21875 -14.59375 C 5.445312 -19.570312 4.0625 -25.46875 4.0625 -32.28125 C 4.0625 -38.90625 5.445312 -44.703125 8.21875 -49.671875 C 11 -54.648438 14.921875 -58.476562 19.984375 -61.15625 C 25.046875 -63.84375 30.953125 -65.1875 37.703125 -65.1875 C 42.335938 -65.1875 46.71875 -64.582031 50.84375 -63.375 C 54.976562 -62.164062 58.34375 -60.507812 60.9375 -58.40625 L 55.59375 -46.375 C 52.644531 -48.300781 49.796875 -49.703125 47.046875 -50.578125 C 44.304688 -51.453125 41.367188 -51.890625 38.234375 -51.890625 C 32.515625 -51.890625 28.253906 -50.273438 25.453125 -47.046875 C 22.648438 -43.828125 21.25 -38.90625 21.25 -32.28125 C 21.25 -25.40625 22.707031 -20.3125 25.625 -17 C 28.550781 -13.6875 33.054688 -12.03125 39.140625 -12.03125 C 41.972656 -12.03125 44.804688 -12.328125 47.640625 -12.921875 L 47.640625 -24.859375 L 36.4375 -24.859375 L 36.4375 -36.34375 Z M 62.921875 -36.34375 "/></g></g></g><g fill="#011c43" fill-opacity="1"><g transform="translate(843.105743, 591.544044)"><g><path d="M 5.78125 0 L 5.78125 -64.375 L 51.71875 -64.375 L 51.71875 -51.34375 L 22.328125 -51.34375 L 22.328125 -39.234375 L 49.8125 -39.234375 L 49.8125 -26.21875 L 22.328125 -26.21875 L 22.328125 -13.015625 L 51.71875 -13.015625 L 51.71875 0 Z M 5.78125 0 "/></g></g></g><g fill="#011c43" fill-opacity="1"><g transform="translate(157.790497, 651.250467)"><g><path d="M 40.21875 -26.1875 L 31.390625 0 L 28.46875 0 L 20.796875 -22.328125 L 13.09375 0 L 10.21875 0 L 1.390625 -26.1875 L 4.234375 -26.1875 L 11.78125 -3.671875 L 19.59375 -26.1875 L 22.1875 -26.1875 L 29.890625 -3.546875 L 37.5625 -26.1875 Z M 40.21875 -26.1875 "/></g></g></g><g fill="#011c43" fill-opacity="1"><g transform="translate(211.928758, 651.250467)"><g><path d="M 22.78125 -2.390625 L 22.78125 0 L 4.265625 0 L 4.265625 -26.1875 L 22.21875 -26.1875 L 22.21875 -23.796875 L 7.03125 -23.796875 L 7.03125 -14.46875 L 20.578125 -14.46875 L 20.578125 -12.125 L 7.03125 -12.125 L 7.03125 -2.390625 Z M 22.78125 -2.390625 "/></g></g></g><g fill="#011c43" fill-opacity="1"><g transform="translate(249.530025, 651.250467)"><g><path d="M 20.765625 -13.5 C 22.484375 -13.125 23.804688 -12.378906 24.734375 -11.265625 C 25.671875 -10.160156 26.140625 -8.738281 26.140625 -7 C 26.140625 -4.75 25.3125 -3.019531 23.65625 -1.8125 C 22 -0.601562 19.550781 0 16.3125 0 L 4.265625 0 L 4.265625 -26.1875 L 15.5625 -26.1875 C 18.476562 -26.1875 20.738281 -25.597656 22.34375 -24.421875 C 23.957031 -23.253906 24.765625 -21.597656 24.765625 -19.453125 C 24.765625 -18.003906 24.40625 -16.773438 23.6875 -15.765625 C 22.976562 -14.753906 22.003906 -14 20.765625 -13.5 Z M 7.03125 -23.90625 L 7.03125 -14.40625 L 15.375 -14.40625 C 17.488281 -14.40625 19.117188 -14.804688 20.265625 -15.609375 C 21.421875 -16.421875 22 -17.601562 22 -19.15625 C 22 -20.695312 21.421875 -21.875 20.265625 -22.6875 C 19.117188 -23.5 17.488281 -23.90625 15.375 -23.90625 Z M 16.265625 -2.28125 C 18.609375 -2.28125 20.378906 -2.675781 21.578125 -3.46875 C 22.773438 -4.269531 23.375 -5.519531 23.375 -7.21875 C 23.375 -10.488281 21.003906 -12.125 16.265625 -12.125 L 7.03125 -12.125 L 7.03125 -2.28125 Z M 16.265625 -2.28125 "/></g></g></g><g fill="#011c43" fill-opacity="1"><g transform="translate(290.311481, 651.250467)"><g/></g></g><g fill="#011c43" fill-opacity="1"><g transform="translate(312.685203, 651.250467)"><g><path d="M 4.265625 -26.1875 L 14.921875 -26.1875 C 17.691406 -26.1875 20.132812 -25.628906 22.25 -24.515625 C 24.375 -23.410156 26.019531 -21.863281 27.1875 -19.875 C 28.363281 -17.894531 28.953125 -15.632812 28.953125 -13.09375 C 28.953125 -10.550781 28.363281 -8.285156 27.1875 -6.296875 C 26.019531 -4.316406 24.375 -2.769531 22.25 -1.65625 C 20.132812 -0.550781 17.691406 0 14.921875 0 L 4.265625 0 Z M 14.78125 -2.390625 C 17.070312 -2.390625 19.078125 -2.84375 20.796875 -3.75 C 22.515625 -4.664062 23.847656 -5.925781 24.796875 -7.53125 C 25.742188 -9.144531 26.21875 -11 26.21875 -13.09375 C 26.21875 -15.1875 25.742188 -17.035156 24.796875 -18.640625 C 23.847656 -20.253906 22.515625 -21.515625 20.796875 -22.421875 C 19.078125 -23.335938 17.070312 -23.796875 14.78125 -23.796875 L 7.03125 -23.796875 L 7.03125 -2.390625 Z M 14.78125 -2.390625 "/></g></g></g><g fill="#011c43" fill-opacity="1"><g transform="translate(356.160485, 651.250467)"><g><path d="M 22.78125 -2.390625 L 22.78125 0 L 4.265625 0 L 4.265625 -26.1875 L 22.21875 -26.1875 L 22.21875 -23.796875 L 7.03125 -23.796875 L 7.03125 -14.46875 L 20.578125 -14.46875 L 20.578125 -12.125 L 7.03125 -12.125 L 7.03125 -2.390625 Z M 22.78125 -2.390625 "/></g></g></g><g fill="#011c43" fill-opacity="1"><g transform="translate(393.761752, 651.250467)"><g><path d="M 26.03125 -26.1875 L 14.4375 0 L 11.703125 0 L 0.109375 -26.1875 L 3.109375 -26.1875 L 13.125 -3.4375 L 23.234375 -26.1875 Z M 26.03125 -26.1875 "/></g></g></g><g fill="#011c43" fill-opacity="1"><g transform="translate(432.448035, 651.250467)"><g><path d="M 22.78125 -2.390625 L 22.78125 0 L 4.265625 0 L 4.265625 -26.1875 L 22.21875 -26.1875 L 22.21875 -23.796875 L 7.03125 -23.796875 L 7.03125 -14.46875 L 20.578125 -14.46875 L 20.578125 -12.125 L 7.03125 -12.125 L 7.03125 -2.390625 Z M 22.78125 -2.390625 "/></g></g></g><g fill="#011c43" fill-opacity="1"><g transform="translate(470.049302, 651.250467)"><g><path d="M 4.265625 -26.1875 L 7.03125 -26.1875 L 7.03125 -2.390625 L 21.703125 -2.390625 L 21.703125 0 L 4.265625 0 Z M 4.265625 -26.1875 "/></g></g></g><g fill="#011c43" fill-opacity="1"><g transform="translate(504.657453, 651.250467)"><g><path d="M 15.703125 0.21875 C 13.117188 0.21875 10.769531 -0.359375 8.65625 -1.515625 C 6.550781 -2.671875 4.90625 -4.257812 3.71875 -6.28125 C 2.53125 -8.300781 1.9375 -10.570312 1.9375 -13.09375 C 1.9375 -15.613281 2.53125 -17.882812 3.71875 -19.90625 C 4.90625 -21.925781 6.550781 -23.515625 8.65625 -24.671875 C 10.769531 -25.828125 13.117188 -26.40625 15.703125 -26.40625 C 18.296875 -26.40625 20.632812 -25.832031 22.71875 -24.6875 C 24.800781 -23.539062 26.441406 -21.953125 27.640625 -19.921875 C 28.835938 -17.890625 29.4375 -15.613281 29.4375 -13.09375 C 29.4375 -10.570312 28.835938 -8.296875 27.640625 -6.265625 C 26.441406 -4.234375 24.800781 -2.644531 22.71875 -1.5 C 20.632812 -0.351562 18.296875 0.21875 15.703125 0.21875 Z M 15.703125 -2.25 C 17.773438 -2.25 19.644531 -2.710938 21.3125 -3.640625 C 22.988281 -4.578125 24.300781 -5.875 25.25 -7.53125 C 26.195312 -9.195312 26.671875 -11.050781 26.671875 -13.09375 C 26.671875 -15.132812 26.195312 -16.984375 25.25 -18.640625 C 24.300781 -20.304688 22.988281 -21.601562 21.3125 -22.53125 C 19.644531 -23.46875 17.773438 -23.9375 15.703125 -23.9375 C 13.640625 -23.9375 11.765625 -23.46875 10.078125 -22.53125 C 8.398438 -21.601562 7.078125 -20.304688 6.109375 -18.640625 C 5.148438 -16.984375 4.671875 -15.132812 4.671875 -13.09375 C 4.671875 -11.050781 5.148438 -9.195312 6.109375 -7.53125 C 7.078125 -5.875 8.398438 -4.578125 10.078125 -3.640625 C 11.765625 -2.710938 13.640625 -2.25 15.703125 -2.25 Z M 15.703125 -2.25 "/></g></g></g><g fill="#011c43" fill-opacity="1"><g transform="translate(548.619101, 651.250467)"><g><path d="M 14.0625 -26.1875 C 17.40625 -26.1875 20.023438 -25.382812 21.921875 -23.78125 C 23.816406 -22.1875 24.765625 -19.992188 24.765625 -17.203125 C 24.765625 -14.410156 23.816406 -12.222656 21.921875 -10.640625 C 20.023438 -9.054688 17.40625 -8.265625 14.0625 -8.265625 L 7.03125 -8.265625 L 7.03125 0 L 4.265625 0 L 4.265625 -26.1875 Z M 13.984375 -10.703125 C 16.578125 -10.703125 18.5625 -11.269531 19.9375 -12.40625 C 21.3125 -13.539062 22 -15.140625 22 -17.203125 C 22 -19.328125 21.3125 -20.957031 19.9375 -22.09375 C 18.5625 -23.226562 16.578125 -23.796875 13.984375 -23.796875 L 7.03125 -23.796875 L 7.03125 -10.703125 Z M 13.984375 -10.703125 "/></g></g></g><g fill="#011c43" fill-opacity="1"><g transform="translate(588.053645, 651.250467)"><g><path d="M 31.453125 -26.1875 L 31.453125 0 L 28.796875 0 L 28.796875 -20.953125 L 18.515625 -3.328125 L 17.203125 -3.328125 L 6.921875 -20.828125 L 6.921875 0 L 4.265625 0 L 4.265625 -26.1875 L 6.546875 -26.1875 L 17.921875 -6.765625 L 29.171875 -26.1875 Z M 31.453125 -26.1875 "/></g></g></g><g fill="#011c43" fill-opacity="1"><g transform="translate(636.355318, 651.250467)"><g><path d="M 22.78125 -2.390625 L 22.78125 0 L 4.265625 0 L 4.265625 -26.1875 L 22.21875 -26.1875 L 22.21875 -23.796875 L 7.03125 -23.796875 L 7.03125 -14.46875 L 20.578125 -14.46875 L 20.578125 -12.125 L 7.03125 -12.125 L 7.03125 -2.390625 Z M 22.78125 -2.390625 "/></g></g></g><g fill="#011c43" fill-opacity="1"><g transform="translate(673.956585, 651.250467)"><g><path d="M 26.140625 -26.1875 L 26.140625 0 L 23.859375 0 L 7.03125 -21.25 L 7.03125 0 L 4.265625 0 L 4.265625 -26.1875 L 6.546875 -26.1875 L 23.421875 -4.9375 L 23.421875 -26.1875 Z M 26.140625 -26.1875 "/></g></g></g><g fill="#011c43" fill-opacity="1"><g transform="translate(716.945466, 651.250467)"><g><path d="M 9.34375 -23.796875 L 0.15625 -23.796875 L 0.15625 -26.1875 L 21.328125 -26.1875 L 21.328125 -23.796875 L 12.125 -23.796875 L 12.125 0 L 9.34375 0 Z M 9.34375 -23.796875 "/></g></g></g></svg>