<svg xmlns="http://www.w3.org/2000/svg" xmlns:xlink="http://www.w3.org/1999/xlink" width="40" zoomAndPan="magnify" viewBox="0 0 30 30.000001" height="40" preserveAspectRatio="xMidYMid meet" version="1.0"><defs><clipPath id="56e79ab1c5"><path d="M 0.484375 0.0234375 L 29.515625 0.0234375 L 29.515625 27.53125 L 0.484375 27.53125 Z M 0.484375 0.0234375 " clip-rule="nonzero"/></clipPath></defs><g clip-path="url(#56e79ab1c5)"><path fill="#dbb42c" d="M 15.292969 16.488281 L 15.292969 1.492188 L 28.367188 26.238281 Z M 1.644531 26.953125 L 15 16.996094 L 28.355469 26.953125 Z M 14.707031 1.492188 L 14.707031 16.488281 L 1.632812 26.238281 Z M 29.492188 27.128906 C 29.488281 27.125 29.492188 27.113281 29.488281 27.109375 L 15.257812 0.179688 C 15.257812 0.171875 15.246094 0.167969 15.242188 0.164062 C 15.222656 0.128906 15.199219 0.105469 15.167969 0.0820312 C 15.15625 0.0742188 15.148438 0.0664062 15.136719 0.0625 C 15.09375 0.0390625 15.050781 0.0234375 15 0.0234375 C 14.949219 0.0234375 14.90625 0.0390625 14.863281 0.0625 C 14.851562 0.0664062 14.84375 0.0742188 14.835938 0.0820312 C 14.800781 0.105469 14.777344 0.128906 14.757812 0.164062 C 14.753906 0.167969 14.742188 0.171875 14.742188 0.179688 L 0.511719 27.109375 C 0.507812 27.113281 0.511719 27.125 0.507812 27.128906 C 0.492188 27.160156 0.484375 27.199219 0.484375 27.234375 C 0.484375 27.246094 0.484375 27.261719 0.484375 27.273438 C 0.492188 27.308594 0.5 27.335938 0.511719 27.367188 C 0.519531 27.375 0.515625 27.382812 0.523438 27.394531 C 0.523438 27.398438 0.527344 27.398438 0.53125 27.402344 C 0.535156 27.40625 0.535156 27.414062 0.539062 27.417969 C 0.554688 27.4375 0.578125 27.449219 0.597656 27.46875 C 0.609375 27.476562 0.621094 27.488281 0.636719 27.496094 C 0.679688 27.519531 0.722656 27.53125 0.773438 27.53125 L 29.226562 27.53125 C 29.277344 27.53125 29.320312 27.519531 29.363281 27.496094 C 29.378906 27.488281 29.390625 27.476562 29.402344 27.46875 C 29.421875 27.449219 29.445312 27.4375 29.460938 27.417969 C 29.464844 27.414062 29.464844 27.40625 29.46875 27.402344 C 29.472656 27.398438 29.476562 27.398438 29.476562 27.394531 C 29.484375 27.386719 29.480469 27.375 29.488281 27.367188 C 29.5 27.335938 29.507812 27.308594 29.515625 27.273438 C 29.515625 27.261719 29.515625 27.246094 29.515625 27.234375 C 29.515625 27.199219 29.507812 27.160156 29.492188 27.128906 " fill-opacity="1" fill-rule="nonzero"/></g></svg>