<svg xmlns="http://www.w3.org/2000/svg" xmlns:xlink="http://www.w3.org/1999/xlink" width="40" zoomAndPan="magnify" viewBox="0 0 30 30.000001" height="40" preserveAspectRatio="xMidYMid meet" version="1.0"><defs><clipPath id="3bc3ea90bd"><path d="M 15 4.988281 L 29.515625 4.988281 L 29.515625 23.859375 L 15 23.859375 Z M 15 4.988281 " clip-rule="nonzero"/></clipPath><clipPath id="9fb1da835c"><path d="M 0.484375 4.988281 L 15 4.988281 L 15 23.859375 L 0.484375 23.859375 Z M 0.484375 4.988281 " clip-rule="nonzero"/></clipPath></defs><g clip-path="url(#3bc3ea90bd)"><path fill="#dea54b" d="M 15.777344 11.996094 C 16.011719 8.828125 17.613281 6.023438 21.085938 5.179688 C 21.613281 5.050781 22.160156 4.988281 22.703125 4.988281 C 26.441406 4.988281 29.46875 7.988281 29.46875 11.691406 C 29.46875 13.324219 28.855469 14.925781 27.757812 16.144531 C 27.214844 16.75 26.566406 17.253906 25.84375 17.628906 C 25.003906 18.0625 24.171875 18.144531 23.277344 18.382812 C 22.453125 18.601562 22.453125 19.714844 22.660156 20.375 C 23.019531 21.507812 23.871094 22.261719 25.066406 22.402344 C 25.3125 22.429688 25.5625 22.441406 25.804688 22.496094 C 26.28125 22.605469 26.691406 23.007812 26.160156 23.339844 C 25.34375 23.859375 23.996094 23.765625 23.089844 23.585938 C 22.046875 23.386719 21.0625 22.929688 20.191406 22.332031 C 17.269531 20.320312 15.488281 15.886719 15.777344 11.996094 Z M 15.777344 11.996094 " fill-opacity="1" fill-rule="nonzero"/></g><g clip-path="url(#9fb1da835c)"><path fill="#dea54b" d="M 0.820312 11.996094 C 1.054688 8.828125 2.65625 6.023438 6.128906 5.179688 C 6.65625 5.050781 7.203125 4.988281 7.746094 4.988281 C 11.484375 4.988281 14.511719 7.988281 14.511719 11.691406 C 14.511719 13.324219 13.898438 14.925781 12.800781 16.144531 C 12.257812 16.75 11.609375 17.253906 10.886719 17.628906 C 10.046875 18.0625 9.214844 18.144531 8.320312 18.382812 C 7.496094 18.601562 7.496094 19.714844 7.703125 20.375 C 8.0625 21.507812 8.914062 22.261719 10.109375 22.402344 C 10.355469 22.429688 10.605469 22.441406 10.847656 22.496094 C 11.324219 22.605469 11.734375 23.007812 11.203125 23.339844 C 10.386719 23.859375 9.039062 23.765625 8.132812 23.585938 C 7.089844 23.386719 6.105469 22.929688 5.234375 22.332031 C 2.3125 20.320312 0.53125 15.886719 0.820312 11.996094 Z M 0.820312 11.996094 " fill-opacity="1" fill-rule="nonzero"/></g></svg>