<svg xmlns="http://www.w3.org/2000/svg" xmlns:xlink="http://www.w3.org/1999/xlink" width="88" zoomAndPan="magnify" viewBox="0 0 66 66" height="88" preserveAspectRatio="xMidYMid meet" version="1.0"><defs><clipPath id="24ff1dc8f0"><path d="M 1.6875 0.640625 L 64.3125 0.640625 L 64.3125 65.308594 L 1.6875 65.308594 Z M 1.6875 0.640625 " clip-rule="nonzero"/></clipPath><clipPath id="de882cc1b4"><path d="M 64.199219 54.613281 C 64.199219 60.492188 59.429688 65.246094 53.5625 65.246094 L 12.4375 65.246094 C 6.554688 65.246094 1.800781 60.480469 1.800781 54.613281 L 1.800781 11.386719 C 1.800781 5.507812 6.570312 0.753906 12.4375 0.753906 L 53.5625 0.753906 C 59.445312 0.753906 64.199219 5.519531 64.199219 11.386719 Z M 64.199219 54.613281 " clip-rule="nonzero"/></clipPath><clipPath id="099acd95ad"><path d="M 1.046875 0 L 64.953125 0 L 64.953125 66 L 1.046875 66 Z M 1.046875 0 " clip-rule="nonzero"/></clipPath><clipPath id="cc10be0ede"><path d="M 53.5625 66 L 12.4375 66 C 6.160156 66 1.046875 60.886719 1.046875 54.613281 L 1.046875 11.386719 C 1.046875 5.113281 6.160156 0 12.4375 0 L 53.5625 0 C 59.839844 0 64.953125 5.113281 64.953125 11.386719 L 64.953125 54.597656 C 64.953125 60.886719 59.839844 66 53.5625 66 Z M 12.4375 1.507812 C 6.992188 1.507812 2.554688 5.941406 2.554688 11.386719 L 2.554688 54.597656 C 2.554688 60.042969 6.992188 64.480469 12.4375 64.480469 L 53.5625 64.480469 C 59.007812 64.480469 63.445312 60.042969 63.445312 54.597656 L 63.445312 11.386719 C 63.445312 5.941406 59.007812 1.507812 53.5625 1.507812 Z M 12.4375 1.507812 " clip-rule="nonzero"/></clipPath><clipPath id="71f89fa030"><path d="M 17.207031 17.207031 L 48.707031 17.207031 L 48.707031 48.707031 L 17.207031 48.707031 Z M 17.207031 17.207031 " clip-rule="nonzero"/></clipPath></defs><g clip-path="url(#24ff1dc8f0)"><g clip-path="url(#de882cc1b4)"><path fill="#5284ff" d="M 1.046875 0 L 64.953125 0 L 64.953125 65.949219 L 1.046875 65.949219 Z M 1.046875 0 " fill-opacity="1" fill-rule="nonzero"/></g></g><g clip-path="url(#099acd95ad)"><g clip-path="url(#cc10be0ede)"><path fill="#5284ff" d="M 1.046875 0 L 64.953125 0 L 64.953125 65.949219 L 1.046875 65.949219 Z M 1.046875 0 " fill-opacity="1" fill-rule="nonzero"/></g></g><g clip-path="url(#71f89fa030)"><path fill="#ffffff" d="M 41.277344 21.175781 C 40.925781 21.15625 40.65625 20.851562 40.679688 20.503906 C 40.699219 20.152344 41 19.882812 41.351562 19.90625 L 45.34375 20.152344 C 45.695312 20.171875 45.960938 20.472656 45.941406 20.824219 C 45.941406 20.847656 45.9375 20.871094 45.933594 20.890625 L 45.265625 24.835938 C 45.207031 25.183594 44.882812 25.417969 44.535156 25.359375 C 44.1875 25.300781 43.953125 24.972656 44.011719 24.625 L 44.417969 22.226562 L 35.941406 28.203125 C 35.726562 28.355469 35.429688 28.363281 35.207031 28.203125 L 30.761719 25.046875 L 24.742188 29.839844 C 24.46875 30.058594 24.066406 30.011719 23.847656 29.734375 C 23.628906 29.460938 23.675781 29.058594 23.949219 28.839844 L 30.34375 23.753906 C 30.578125 23.566406 30.90625 23.574219 31.132812 23.75 L 35.574219 26.90625 L 43.507812 21.3125 Z M 27.929688 17.207031 C 22.007812 17.207031 17.207031 22.007812 17.207031 27.929688 C 17.207031 33.851562 22.007812 38.652344 27.929688 38.652344 C 30.347656 38.652344 32.582031 37.847656 34.378906 36.496094 L 36.949219 39.066406 C 36.644531 39.59375 36.714844 40.28125 37.164062 40.730469 L 44.605469 48.171875 C 45.140625 48.707031 46.015625 48.707031 46.550781 48.171875 L 48.171875 46.550781 C 48.707031 46.015625 48.707031 45.140625 48.171875 44.605469 L 40.730469 37.164062 C 40.28125 36.714844 39.59375 36.644531 39.066406 36.949219 L 36.496094 34.378906 C 37.847656 32.582031 38.652344 30.347656 38.652344 27.929688 C 38.652344 27.902344 38.652344 27.878906 38.652344 27.851562 C 37.546875 28.632812 36.441406 29.410156 35.339844 30.1875 C 34.371094 33.363281 31.421875 35.675781 27.929688 35.675781 C 23.652344 35.675781 20.183594 32.207031 20.183594 27.929688 C 20.183594 23.652344 23.652344 20.183594 27.929688 20.183594 C 31.171875 20.183594 33.949219 22.175781 35.105469 25.007812 L 35.578125 25.34375 L 37.8125 23.765625 C 36.1875 19.910156 32.375 17.207031 27.929688 17.207031 Z M 27.929688 17.207031 " fill-opacity="1" fill-rule="evenodd"/></g></svg>