<svg xmlns="http://www.w3.org/2000/svg" xmlns:xlink="http://www.w3.org/1999/xlink" width="88" zoomAndPan="magnify" viewBox="0 0 66 66" height="88" preserveAspectRatio="xMidYMid meet" version="1.0"><defs><clipPath id="f7d8665f87"><path d="M 1.6875 0.640625 L 64.3125 0.640625 L 64.3125 65.308594 L 1.6875 65.308594 Z M 1.6875 0.640625 " clip-rule="nonzero"/></clipPath><clipPath id="ed1324723f"><path d="M 64.199219 54.613281 C 64.199219 60.492188 59.429688 65.246094 53.5625 65.246094 L 12.4375 65.246094 C 6.554688 65.246094 1.800781 60.480469 1.800781 54.613281 L 1.800781 11.386719 C 1.800781 5.507812 6.570312 0.753906 12.4375 0.753906 L 53.5625 0.753906 C 59.445312 0.753906 64.199219 5.519531 64.199219 11.386719 Z M 64.199219 54.613281 " clip-rule="nonzero"/></clipPath><clipPath id="58960bccf9"><path d="M 1.046875 0 L 64.953125 0 L 64.953125 66 L 1.046875 66 Z M 1.046875 0 " clip-rule="nonzero"/></clipPath><clipPath id="55a9e43973"><path d="M 53.5625 66 L 12.4375 66 C 6.160156 66 1.046875 60.886719 1.046875 54.613281 L 1.046875 11.386719 C 1.046875 5.113281 6.160156 0 12.4375 0 L 53.5625 0 C 59.839844 0 64.953125 5.113281 64.953125 11.386719 L 64.953125 54.597656 C 64.953125 60.886719 59.839844 66 53.5625 66 Z M 12.4375 1.507812 C 6.992188 1.507812 2.554688 5.941406 2.554688 11.386719 L 2.554688 54.597656 C 2.554688 60.042969 6.992188 64.480469 12.4375 64.480469 L 53.5625 64.480469 C 59.007812 64.480469 63.445312 60.042969 63.445312 54.597656 L 63.445312 11.386719 C 63.445312 5.941406 59.007812 1.507812 53.5625 1.507812 Z M 12.4375 1.507812 " clip-rule="nonzero"/></clipPath><clipPath id="741145f788"><path d="M 16.203125 17.355469 L 49.953125 17.355469 L 49.953125 44 L 16.203125 44 Z M 16.203125 17.355469 " clip-rule="nonzero"/></clipPath><clipPath id="096623aa9d"><path d="M 16.203125 37 L 49.953125 37 L 49.953125 39 L 16.203125 39 Z M 16.203125 37 " clip-rule="nonzero"/></clipPath><clipPath id="d3f88d0b31"><path d="M 32 42 L 34 42 L 34 48.855469 L 32 48.855469 Z M 32 42 " clip-rule="nonzero"/></clipPath><clipPath id="4b4e4d8683"><path d="M 26 48 L 40 48 L 40 48.855469 L 26 48.855469 Z M 26 48 " clip-rule="nonzero"/></clipPath></defs><g clip-path="url(#f7d8665f87)"><g clip-path="url(#ed1324723f)"><path fill="#004aad" d="M 1.046875 0 L 64.953125 0 L 64.953125 65.949219 L 1.046875 65.949219 Z M 1.046875 0 " fill-opacity="1" fill-rule="nonzero"/></g></g><g clip-path="url(#58960bccf9)"><g clip-path="url(#55a9e43973)"><path fill="#004aad" d="M 1.046875 0 L 64.953125 0 L 64.953125 65.949219 L 1.046875 65.949219 Z M 1.046875 0 " fill-opacity="1" fill-rule="nonzero"/></g></g><g clip-path="url(#741145f788)"><path fill="#ffffff" d="M 18.074219 17.355469 L 48.078125 17.355469 C 48.589844 17.355469 49.058594 17.566406 49.394531 17.90625 L 49.117188 18.1875 L 49.398438 17.90625 C 49.40625 17.914062 49.414062 17.921875 49.421875 17.929688 C 49.746094 18.269531 49.945312 18.726562 49.945312 19.226562 L 49.945312 41.140625 C 49.945312 41.65625 49.734375 42.125 49.398438 42.460938 C 49.058594 42.800781 48.59375 43.011719 48.078125 43.011719 L 18.074219 43.011719 C 17.5625 43.011719 17.09375 42.800781 16.757812 42.460938 C 16.417969 42.125 16.207031 41.65625 16.207031 41.140625 L 16.207031 19.226562 C 16.207031 18.714844 16.417969 18.246094 16.757812 17.90625 L 17.035156 18.1875 L 16.757812 17.90625 C 16.765625 17.898438 16.773438 17.890625 16.78125 17.882812 C 17.117188 17.558594 17.574219 17.355469 18.074219 17.355469 Z M 48.078125 18.148438 L 18.074219 18.148438 C 17.789062 18.148438 17.527344 18.261719 17.332031 18.449219 C 17.328125 18.453125 17.320312 18.460938 17.316406 18.464844 C 17.121094 18.660156 17 18.929688 17 19.226562 L 17 41.140625 C 17 41.4375 17.121094 41.707031 17.316406 41.902344 C 17.511719 42.097656 17.777344 42.21875 18.074219 42.21875 L 48.078125 42.21875 C 48.375 42.21875 48.644531 42.097656 48.839844 41.902344 C 49.03125 41.707031 49.152344 41.4375 49.152344 41.140625 L 49.152344 19.226562 C 49.152344 18.9375 49.039062 18.675781 48.855469 18.484375 C 48.851562 18.476562 48.84375 18.472656 48.839844 18.464844 C 48.644531 18.269531 48.375 18.148438 48.078125 18.148438 Z M 48.078125 18.148438 " fill-opacity="1" fill-rule="nonzero"/></g><g clip-path="url(#096623aa9d)"><path fill="#ffffff" d="M 16.605469 37.992188 C 16.386719 37.992188 16.207031 38.171875 16.207031 38.390625 C 16.207031 38.609375 16.386719 38.785156 16.605469 38.785156 L 49.550781 38.785156 C 49.769531 38.785156 49.945312 38.609375 49.945312 38.390625 C 49.945312 38.171875 49.769531 37.992188 49.550781 37.992188 Z M 16.605469 37.992188 " fill-opacity="1" fill-rule="nonzero"/></g><path fill="#ffffff" d="M 46.792969 40.105469 C 46.574219 40.105469 46.394531 40.285156 46.394531 40.503906 C 46.394531 40.722656 46.574219 40.898438 46.792969 40.898438 L 46.890625 40.898438 C 47.109375 40.898438 47.285156 40.722656 47.285156 40.503906 C 47.285156 40.285156 47.109375 40.105469 46.890625 40.105469 Z M 46.792969 40.105469 " fill-opacity="1" fill-rule="nonzero"/><path fill="#ffffff" d="M 44.683594 40.105469 C 44.464844 40.105469 44.289062 40.285156 44.289062 40.503906 C 44.289062 40.722656 44.464844 40.898438 44.683594 40.898438 L 44.78125 40.898438 C 45 40.898438 45.175781 40.722656 45.175781 40.503906 C 45.175781 40.285156 45 40.105469 44.78125 40.105469 Z M 44.683594 40.105469 " fill-opacity="1" fill-rule="nonzero"/><path fill="#ffffff" d="M 35.230469 22.332031 C 35.285156 22.121094 35.160156 21.902344 34.949219 21.847656 C 34.738281 21.789062 34.523438 21.914062 34.46875 22.125 L 31.34375 33.8125 C 31.285156 34.023438 31.410156 34.238281 31.621094 34.296875 C 31.832031 34.351562 32.050781 34.226562 32.105469 34.015625 Z M 35.230469 22.332031 " fill-opacity="1" fill-rule="nonzero"/><path fill="#ffffff" d="M 37.128906 30.738281 C 36.933594 30.835938 36.855469 31.070312 36.953125 31.269531 C 37.050781 31.464844 37.289062 31.542969 37.484375 31.445312 L 43.554688 28.40625 L 43.378906 28.050781 L 43.554688 28.40625 C 43.75 28.308594 43.832031 28.070312 43.734375 27.875 C 43.6875 27.78125 43.605469 27.710938 43.515625 27.679688 L 37.351562 24.777344 C 37.152344 24.683594 36.917969 24.769531 36.828125 24.964844 C 36.734375 25.164062 36.820312 25.398438 37.015625 25.492188 L 42.476562 28.0625 Z M 37.128906 30.738281 " fill-opacity="1" fill-rule="nonzero"/><path fill="#ffffff" d="M 28.671875 31.445312 C 28.867188 31.542969 29.101562 31.464844 29.199219 31.269531 C 29.296875 31.070312 29.21875 30.835938 29.023438 30.738281 L 23.679688 28.0625 L 29.136719 25.492188 C 29.332031 25.398438 29.417969 25.164062 29.324219 24.964844 C 29.234375 24.769531 29 24.683594 28.800781 24.777344 L 22.636719 27.679688 C 22.546875 27.710938 22.464844 27.78125 22.417969 27.875 C 22.324219 28.070312 22.402344 28.308594 22.597656 28.40625 L 22.773438 28.050781 L 22.597656 28.40625 Z M 28.671875 31.445312 " fill-opacity="1" fill-rule="nonzero"/><g clip-path="url(#d3f88d0b31)"><path fill="#ffffff" d="M 33.472656 42.617188 C 33.472656 42.398438 33.292969 42.21875 33.078125 42.21875 C 32.859375 42.21875 32.679688 42.398438 32.679688 42.617188 L 32.679688 48.460938 C 32.679688 48.679688 32.859375 48.855469 33.078125 48.855469 C 33.292969 48.855469 33.472656 48.679688 33.472656 48.460938 Z M 33.472656 42.617188 " fill-opacity="1" fill-rule="nonzero"/></g><g clip-path="url(#4b4e4d8683)"><path fill="#ffffff" d="M 27.109375 48.0625 C 26.890625 48.0625 26.710938 48.242188 26.710938 48.460938 C 26.710938 48.679688 26.890625 48.855469 27.109375 48.855469 L 39.046875 48.855469 C 39.265625 48.855469 39.441406 48.679688 39.441406 48.460938 C 39.441406 48.242188 39.265625 48.0625 39.046875 48.0625 Z M 27.109375 48.0625 " fill-opacity="1" fill-rule="nonzero"/></g><path fill="#ffffff" d="M 40.417969 40.105469 C 40.199219 40.105469 40.023438 40.285156 40.023438 40.503906 C 40.023438 40.722656 40.199219 40.898438 40.417969 40.898438 L 42.125 40.898438 C 42.34375 40.898438 42.523438 40.722656 42.523438 40.503906 C 42.523438 40.285156 42.34375 40.105469 42.125 40.105469 Z M 40.417969 40.105469 " fill-opacity="1" fill-rule="nonzero"/></svg>