<svg xmlns="http://www.w3.org/2000/svg" xmlns:xlink="http://www.w3.org/1999/xlink" width="88" zoomAndPan="magnify" viewBox="0 0 66 66" height="88" preserveAspectRatio="xMidYMid meet" version="1.0"><defs><clipPath id="0a9decb254"><path d="M 1.6875 0.640625 L 64.3125 0.640625 L 64.3125 65.308594 L 1.6875 65.308594 Z M 1.6875 0.640625 " clip-rule="nonzero"/></clipPath><clipPath id="3f2d7c220a"><path d="M 64.199219 54.613281 C 64.199219 60.492188 59.429688 65.246094 53.5625 65.246094 L 12.4375 65.246094 C 6.554688 65.246094 1.800781 60.480469 1.800781 54.613281 L 1.800781 11.386719 C 1.800781 5.507812 6.570312 0.753906 12.4375 0.753906 L 53.5625 0.753906 C 59.445312 0.753906 64.199219 5.519531 64.199219 11.386719 Z M 64.199219 54.613281 " clip-rule="nonzero"/></clipPath><clipPath id="da3677553e"><path d="M 1.046875 0 L 64.953125 0 L 64.953125 66 L 1.046875 66 Z M 1.046875 0 " clip-rule="nonzero"/></clipPath><clipPath id="8f23289a32"><path d="M 53.5625 66 L 12.4375 66 C 6.160156 66 1.046875 60.886719 1.046875 54.613281 L 1.046875 11.386719 C 1.046875 5.113281 6.160156 0 12.4375 0 L 53.5625 0 C 59.839844 0 64.953125 5.113281 64.953125 11.386719 L 64.953125 54.597656 C 64.953125 60.886719 59.839844 66 53.5625 66 Z M 12.4375 1.507812 C 6.992188 1.507812 2.554688 5.941406 2.554688 11.386719 L 2.554688 54.597656 C 2.554688 60.042969 6.992188 64.480469 12.4375 64.480469 L 53.5625 64.480469 C 59.007812 64.480469 63.445312 60.042969 63.445312 54.597656 L 63.445312 11.386719 C 63.445312 5.941406 59.007812 1.507812 53.5625 1.507812 Z M 12.4375 1.507812 " clip-rule="nonzero"/></clipPath><clipPath id="43944b1895"><path d="M 17.300781 20.046875 L 43 20.046875 L 43 45 L 17.300781 45 Z M 17.300781 20.046875 " clip-rule="nonzero"/></clipPath><clipPath id="9bf21bb544"><path d="M 38 28 L 48.800781 28 L 48.800781 46.296875 L 38 46.296875 Z M 38 28 " clip-rule="nonzero"/></clipPath></defs><g clip-path="url(#0a9decb254)"><g clip-path="url(#3f2d7c220a)"><path fill="#004aad" d="M 1.046875 0 L 64.953125 0 L 64.953125 65.949219 L 1.046875 65.949219 Z M 1.046875 0 " fill-opacity="1" fill-rule="nonzero"/></g></g><g clip-path="url(#da3677553e)"><g clip-path="url(#8f23289a32)"><path fill="#004aad" d="M 1.046875 0 L 64.953125 0 L 64.953125 65.949219 L 1.046875 65.949219 Z M 1.046875 0 " fill-opacity="1" fill-rule="nonzero"/></g></g><g clip-path="url(#43944b1895)"><path fill="#ffffff" d="M 42.378906 22.074219 L 41.34375 22.074219 L 41.34375 21.558594 C 41.34375 21.265625 41.105469 21.027344 40.816406 21.027344 L 19.066406 21.027344 C 18.769531 21.027344 18.539062 21.265625 18.539062 21.558594 L 18.539062 34.640625 L 30.976562 34.640625 L 30.976562 35.6875 L 18.539062 35.6875 L 18.539062 38.292969 C 18.539062 38.589844 18.773438 38.828125 19.066406 38.828125 L 30.976562 38.828125 L 30.976562 39.875 L 28.6875 39.875 L 27.910156 43.015625 L 30.976562 43.015625 L 30.976562 44.0625 L 25.277344 44.0625 C 24.984375 44.0625 24.757812 43.828125 24.757812 43.539062 C 24.757812 43.261719 24.988281 43.015625 25.28125 43.015625 L 26.625 43.015625 C 26.746094 43.015625 26.851562 42.925781 26.878906 42.816406 L 27.609375 39.875 L 19.066406 39.875 C 18.203125 39.875 17.5 39.167969 17.5 38.308594 L 17.5 21.542969 C 17.5 20.675781 18.191406 19.976562 19.066406 19.976562 L 40.816406 19.976562 C 41.679688 19.976562 42.378906 20.6875 42.378906 21.542969 Z M 29.941406 38.304688 C 29.367188 38.304688 28.90625 37.835938 28.90625 37.257812 C 28.90625 36.679688 29.367188 36.210938 29.941406 36.210938 C 30.511719 36.210938 30.976562 36.679688 30.976562 37.257812 C 30.976562 37.835938 30.511719 38.304688 29.941406 38.304688 Z M 29.941406 38.304688 " fill-opacity="1" fill-rule="evenodd"/></g><path fill="#ffffff" d="M 46.527344 27.308594 L 45.492188 27.308594 L 45.492188 26.261719 L 33.050781 26.261719 L 33.050781 39.875 L 37.199219 39.875 L 37.199219 40.921875 L 33.050781 40.921875 L 33.050781 43.546875 C 33.050781 43.828125 33.28125 44.0625 33.570312 44.0625 L 37.199219 44.0625 L 37.199219 45.113281 L 33.574219 45.113281 C 32.710938 45.113281 32.015625 44.414062 32.015625 43.535156 L 32.015625 24.695312 C 32.015625 23.824219 32.707031 23.121094 33.574219 23.121094 L 44.96875 23.121094 C 45.832031 23.121094 46.527344 23.816406 46.527344 24.695312 Z M 33.050781 24.683594 L 33.050781 25.214844 L 45.492188 25.214844 L 45.492188 24.683594 C 45.492188 24.402344 45.257812 24.167969 44.972656 24.167969 L 33.570312 24.167969 C 33.277344 24.167969 33.050781 24.402344 33.050781 24.683594 Z M 33.050781 24.683594 " fill-opacity="1" fill-rule="evenodd"/><g clip-path="url(#9bf21bb544)"><path fill="#ffffff" d="M 39.792969 28.355469 L 47.039062 28.355469 C 47.902344 28.355469 48.601562 29.054688 48.601562 29.933594 L 48.601562 44.582031 C 48.601562 45.453125 47.910156 46.160156 47.039062 46.160156 L 39.792969 46.160156 C 38.929688 46.160156 38.234375 45.460938 38.234375 44.582031 L 38.234375 29.933594 C 38.234375 29.058594 38.925781 28.355469 39.792969 28.355469 Z M 39.269531 40.921875 L 47.5625 40.921875 L 47.5625 31.496094 L 39.269531 31.496094 Z M 39.269531 29.921875 L 39.269531 30.449219 L 47.5625 30.449219 L 47.5625 29.921875 C 47.5625 29.636719 47.332031 29.402344 47.046875 29.402344 L 39.789062 29.402344 C 39.496094 29.402344 39.269531 29.636719 39.269531 29.921875 Z M 39.269531 44.59375 C 39.269531 44.875 39.503906 45.113281 39.789062 45.113281 L 47.046875 45.113281 C 47.335938 45.113281 47.5625 44.875 47.5625 44.59375 L 47.5625 41.96875 L 39.269531 41.96875 Z M 39.269531 44.59375 " fill-opacity="1" fill-rule="evenodd"/></g><path fill="#ffffff" d="M 44.453125 43.539062 C 44.453125 44.117188 43.988281 44.585938 43.417969 44.585938 C 42.84375 44.585938 42.378906 44.117188 42.378906 43.539062 C 42.378906 42.960938 42.84375 42.492188 43.417969 42.492188 C 43.988281 42.492188 44.453125 42.960938 44.453125 43.539062 Z M 44.453125 43.539062 " fill-opacity="1" fill-rule="evenodd"/></svg>