<svg xmlns="http://www.w3.org/2000/svg" xmlns:xlink="http://www.w3.org/1999/xlink" width="88" zoomAndPan="magnify" viewBox="0 0 66 66" height="88" preserveAspectRatio="xMidYMid meet" version="1.0"><defs><clipPath id="5eb670f72f"><path d="M 1.6875 0.640625 L 64.3125 0.640625 L 64.3125 65.308594 L 1.6875 65.308594 Z M 1.6875 0.640625 " clip-rule="nonzero"/></clipPath><clipPath id="d45aa5ef43"><path d="M 64.199219 54.613281 C 64.199219 60.492188 59.429688 65.246094 53.5625 65.246094 L 12.4375 65.246094 C 6.554688 65.246094 1.800781 60.480469 1.800781 54.613281 L 1.800781 11.386719 C 1.800781 5.507812 6.570312 0.753906 12.4375 0.753906 L 53.5625 0.753906 C 59.445312 0.753906 64.199219 5.519531 64.199219 11.386719 Z M 64.199219 54.613281 " clip-rule="nonzero"/></clipPath><clipPath id="6f525f1ca1"><path d="M 1.046875 0 L 64.953125 0 L 64.953125 66 L 1.046875 66 Z M 1.046875 0 " clip-rule="nonzero"/></clipPath><clipPath id="6e90ba5f91"><path d="M 53.5625 66 L 12.4375 66 C 6.160156 66 1.046875 60.886719 1.046875 54.613281 L 1.046875 11.386719 C 1.046875 5.113281 6.160156 0 12.4375 0 L 53.5625 0 C 59.839844 0 64.953125 5.113281 64.953125 11.386719 L 64.953125 54.597656 C 64.953125 60.886719 59.839844 66 53.5625 66 Z M 12.4375 1.507812 C 6.992188 1.507812 2.554688 5.941406 2.554688 11.386719 L 2.554688 54.597656 C 2.554688 60.042969 6.992188 64.480469 12.4375 64.480469 L 53.5625 64.480469 C 59.007812 64.480469 63.445312 60.042969 63.445312 54.597656 L 63.445312 11.386719 C 63.445312 5.941406 59.007812 1.507812 53.5625 1.507812 Z M 12.4375 1.507812 " clip-rule="nonzero"/></clipPath><clipPath id="5e473b94e0"><path d="M 17.246094 17.246094 L 48.746094 17.246094 L 48.746094 48.746094 L 17.246094 48.746094 Z M 17.246094 17.246094 " clip-rule="nonzero"/></clipPath></defs><g clip-path="url(#5eb670f72f)"><g clip-path="url(#d45aa5ef43)"><path fill="#5284ff" d="M 1.046875 0 L 64.953125 0 L 64.953125 65.949219 L 1.046875 65.949219 Z M 1.046875 0 " fill-opacity="1" fill-rule="nonzero"/></g></g><g clip-path="url(#6f525f1ca1)"><g clip-path="url(#6e90ba5f91)"><path fill="#5284ff" d="M 1.046875 0 L 64.953125 0 L 64.953125 65.949219 L 1.046875 65.949219 Z M 1.046875 0 " fill-opacity="1" fill-rule="nonzero"/></g></g><g clip-path="url(#5e473b94e0)"><path fill="#ffffff" d="M 44.355469 26.007812 C 44.53125 26.007812 44.683594 25.945312 44.808594 25.820312 L 48.175781 22.449219 C 48.300781 22.324219 48.363281 22.175781 48.363281 22 C 48.363281 21.824219 48.300781 21.671875 48.175781 21.550781 L 44.441406 17.816406 C 44.316406 17.695312 44.167969 17.636719 43.992188 17.636719 C 43.820312 17.636719 43.667969 17.695312 43.542969 17.816406 L 40.171875 21.183594 C 40.046875 21.308594 39.984375 21.460938 39.984375 21.636719 L 39.984375 25.105469 L 34.316406 30.777344 L 29.273438 25.734375 C 29.476562 25.214844 29.601562 24.679688 29.652344 24.125 C 29.699219 23.570312 29.675781 23.019531 29.570312 22.472656 C 29.464844 21.925781 29.289062 21.40625 29.039062 20.90625 C 28.789062 20.410156 28.476562 19.957031 28.097656 19.546875 C 27.722656 19.140625 27.296875 18.789062 26.820312 18.5 C 26.34375 18.210938 25.839844 17.992188 25.304688 17.84375 C 24.765625 17.695312 24.222656 17.621094 23.664062 17.628906 C 23.109375 17.632812 22.5625 17.714844 22.03125 17.871094 C 21.921875 17.902344 21.828125 17.957031 21.75 18.039062 C 21.671875 18.121094 21.621094 18.214844 21.589844 18.324219 C 21.5625 18.433594 21.566406 18.542969 21.59375 18.652344 C 21.625 18.757812 21.679688 18.855469 21.757812 18.933594 L 24.371094 21.550781 L 23.988281 23.855469 L 21.683594 24.238281 L 19.0625 21.628906 C 18.984375 21.550781 18.886719 21.496094 18.78125 21.464844 C 18.671875 21.4375 18.5625 21.4375 18.453125 21.464844 C 18.34375 21.492188 18.25 21.542969 18.167969 21.621094 C 18.089844 21.699219 18.03125 21.792969 18 21.902344 C 17.84375 22.433594 17.761719 22.980469 17.753906 23.535156 C 17.75 24.09375 17.824219 24.640625 17.96875 25.175781 C 18.117188 25.710938 18.339844 26.21875 18.628906 26.691406 C 18.917969 27.167969 19.265625 27.59375 19.675781 27.972656 C 20.085938 28.347656 20.539062 28.660156 21.035156 28.910156 C 21.535156 29.160156 22.054688 29.339844 22.601562 29.441406 C 23.148438 29.546875 23.699219 29.574219 24.253906 29.523438 C 24.808594 29.472656 25.34375 29.347656 25.863281 29.144531 L 27.730469 31.019531 L 26.335938 32.40625 C 26.210938 32.53125 26.148438 32.683594 26.148438 32.859375 C 26.148438 33.035156 26.210938 33.1875 26.335938 33.3125 L 26.53125 33.503906 C 26.683594 33.65625 26.761719 33.839844 26.761719 34.058594 C 26.761719 34.273438 26.683594 34.457031 26.53125 34.613281 C 26.378906 34.765625 26.195312 34.839844 25.976562 34.84375 C 25.761719 34.84375 25.578125 34.765625 25.421875 34.613281 L 25.226562 34.417969 C 25.105469 34.292969 24.953125 34.230469 24.777344 34.230469 C 24.601562 34.230469 24.449219 34.292969 24.324219 34.417969 L 19.257812 39.488281 C 19.019531 39.726562 18.808594 39.984375 18.621094 40.265625 C 18.433594 40.542969 18.277344 40.839844 18.148438 41.148438 C 18.019531 41.460938 17.921875 41.78125 17.855469 42.109375 C 17.789062 42.441406 17.757812 42.773438 17.757812 43.109375 C 17.757812 43.445312 17.792969 43.78125 17.855469 44.109375 C 17.921875 44.441406 18.019531 44.761719 18.148438 45.070312 C 18.277344 45.382812 18.433594 45.675781 18.621094 45.957031 C 18.808594 46.234375 19.019531 46.496094 19.257812 46.734375 C 19.496094 46.96875 19.757812 47.183594 20.035156 47.371094 C 20.316406 47.558594 20.609375 47.714844 20.921875 47.84375 C 21.230469 47.972656 21.550781 48.070312 21.882812 48.136719 C 22.210938 48.199219 22.546875 48.234375 22.882812 48.234375 C 23.21875 48.234375 23.550781 48.199219 23.882812 48.136719 C 24.210938 48.070312 24.53125 47.972656 24.84375 47.84375 C 25.152344 47.714844 25.449219 47.558594 25.726562 47.371094 C 26.007812 47.183594 26.265625 46.972656 26.503906 46.734375 L 31.574219 41.664062 C 31.699219 41.539062 31.761719 41.390625 31.761719 41.214844 C 31.761719 41.039062 31.699219 40.886719 31.574219 40.761719 L 31.378906 40.570312 C 31.226562 40.414062 31.148438 40.230469 31.148438 40.015625 C 31.148438 39.796875 31.226562 39.613281 31.378906 39.460938 C 31.535156 39.3125 31.71875 39.238281 31.933594 39.238281 C 32.148438 39.238281 32.332031 39.3125 32.488281 39.460938 L 32.683594 39.65625 C 32.808594 39.777344 32.957031 39.839844 33.132812 39.839844 C 33.308594 39.839844 33.460938 39.777344 33.582031 39.65625 L 34.972656 38.261719 L 36.839844 40.128906 C 36.640625 40.648438 36.515625 41.183594 36.464844 41.738281 C 36.414062 42.292969 36.441406 42.84375 36.546875 43.390625 C 36.652344 43.9375 36.828125 44.457031 37.078125 44.953125 C 37.328125 45.453125 37.640625 45.90625 38.019531 46.3125 C 38.394531 46.722656 38.820312 47.070312 39.296875 47.363281 C 39.769531 47.652344 40.277344 47.871094 40.8125 48.019531 C 41.347656 48.167969 41.894531 48.238281 42.449219 48.234375 C 43.007812 48.230469 43.550781 48.152344 44.085938 47.992188 C 44.191406 47.960938 44.285156 47.90625 44.363281 47.824219 C 44.441406 47.742188 44.496094 47.648438 44.523438 47.539062 C 44.550781 47.429688 44.550781 47.320312 44.519531 47.214844 C 44.492188 47.105469 44.4375 47.011719 44.355469 46.929688 L 41.742188 44.316406 L 42.125 42.007812 L 44.429688 41.625 L 47.046875 44.238281 C 47.125 44.320312 47.21875 44.375 47.328125 44.402344 C 47.4375 44.433594 47.546875 44.433594 47.652344 44.40625 C 47.761719 44.378906 47.859375 44.324219 47.9375 44.246094 C 48.019531 44.167969 48.078125 44.078125 48.109375 43.96875 C 48.265625 43.433594 48.347656 42.890625 48.351562 42.332031 C 48.355469 41.777344 48.285156 41.230469 48.136719 40.695312 C 47.988281 40.15625 47.769531 39.652344 47.480469 39.175781 C 47.191406 38.703125 46.839844 38.277344 46.429688 37.898438 C 46.023438 37.523438 45.570312 37.207031 45.070312 36.957031 C 44.574219 36.707031 44.054688 36.53125 43.507812 36.425781 C 42.960938 36.324219 42.410156 36.296875 41.855469 36.347656 C 41.300781 36.398438 40.765625 36.523438 40.246094 36.722656 L 35.203125 31.683594 L 40.875 26.011719 Z M 33.109375 38.324219 C 32.910156 38.191406 32.695312 38.09375 32.460938 38.035156 C 32.230469 37.976562 31.992188 37.957031 31.753906 37.976562 C 31.515625 38 31.285156 38.058594 31.066406 38.160156 C 30.847656 38.257812 30.652344 38.390625 30.476562 38.558594 C 30.308594 38.730469 30.171875 38.925781 30.070312 39.144531 C 29.96875 39.363281 29.90625 39.59375 29.882812 39.832031 C 29.863281 40.074219 29.882812 40.3125 29.945312 40.542969 C 30.007812 40.777344 30.105469 40.992188 30.242188 41.191406 L 25.601562 45.832031 C 25.28125 46.152344 24.914062 46.410156 24.5 46.601562 C 24.089844 46.789062 23.65625 46.90625 23.203125 46.941406 C 22.75 46.980469 22.304688 46.9375 21.867188 46.816406 C 21.429688 46.695312 21.023438 46.503906 20.65625 46.238281 L 26.066406 40.828125 C 26.191406 40.703125 26.257812 40.550781 26.257812 40.375 C 26.261719 40.195312 26.199219 40.042969 26.074219 39.917969 C 25.945312 39.792969 25.792969 39.730469 25.617188 39.730469 C 25.4375 39.734375 25.285156 39.796875 25.164062 39.925781 L 19.75 45.339844 C 19.484375 44.96875 19.292969 44.566406 19.171875 44.125 C 19.046875 43.6875 19.007812 43.242188 19.042969 42.789062 C 19.082031 42.335938 19.195312 41.902344 19.386719 41.488281 C 19.578125 41.078125 19.835938 40.710938 20.160156 40.390625 L 24.800781 35.746094 C 24.996094 35.886719 25.214844 35.984375 25.445312 36.046875 C 25.679688 36.109375 25.917969 36.132812 26.160156 36.109375 C 26.398438 36.089844 26.628906 36.027344 26.847656 35.925781 C 27.066406 35.824219 27.261719 35.6875 27.433594 35.515625 C 27.605469 35.34375 27.742188 35.148438 27.84375 34.929688 C 27.945312 34.710938 28.007812 34.480469 28.03125 34.242188 C 28.050781 34 28.03125 33.761719 27.96875 33.527344 C 27.90625 33.296875 27.804688 33.078125 27.667969 32.882812 L 28.632812 31.914062 L 32.71875 36.003906 L 34.078125 37.359375 Z M 40.386719 38.050781 C 40.566406 37.964844 40.753906 37.886719 40.945312 37.824219 C 41.136719 37.761719 41.328125 37.710938 41.527344 37.675781 C 41.722656 37.636719 41.921875 37.613281 42.125 37.597656 C 42.324219 37.585938 42.523438 37.585938 42.726562 37.601562 C 42.925781 37.613281 43.125 37.640625 43.320312 37.679688 C 43.519531 37.71875 43.710938 37.769531 43.902344 37.835938 C 44.09375 37.898438 44.277344 37.976562 44.460938 38.0625 C 44.640625 38.152344 44.816406 38.25 44.984375 38.363281 C 45.148438 38.472656 45.308594 38.59375 45.460938 38.722656 C 45.613281 38.855469 45.757812 38.996094 45.894531 39.144531 C 46.027344 39.292969 46.152344 39.453125 46.265625 39.617188 C 46.378906 39.78125 46.480469 39.953125 46.574219 40.132812 C 46.664062 40.3125 46.746094 40.496094 46.8125 40.683594 C 46.882812 40.875 46.9375 41.066406 46.980469 41.261719 C 47.023438 41.457031 47.054688 41.65625 47.074219 41.855469 C 47.089844 42.058594 47.097656 42.257812 47.089844 42.457031 L 45.113281 40.484375 C 44.957031 40.328125 44.769531 40.269531 44.554688 40.304688 L 41.476562 40.824219 C 41.175781 40.875 41.003906 41.050781 40.953125 41.347656 L 40.433594 44.429688 C 40.398438 44.644531 40.457031 44.828125 40.613281 44.984375 L 42.585938 46.960938 C 41.933594 46.980469 41.304688 46.871094 40.695312 46.632812 C 40.089844 46.394531 39.554688 46.046875 39.089844 45.589844 C 38.746094 45.246094 38.464844 44.859375 38.242188 44.429688 C 38.019531 44 37.867188 43.546875 37.789062 43.070312 C 37.707031 42.59375 37.699219 42.113281 37.765625 41.636719 C 37.832031 41.15625 37.96875 40.695312 38.175781 40.261719 C 38.304688 39.988281 38.261719 39.746094 38.050781 39.535156 L 26.457031 27.9375 C 26.246094 27.726562 26.003906 27.683594 25.734375 27.8125 C 25.550781 27.898438 25.367188 27.972656 25.175781 28.035156 C 24.984375 28.097656 24.789062 28.148438 24.59375 28.1875 C 24.394531 28.226562 24.195312 28.25 23.996094 28.261719 C 23.796875 28.273438 23.59375 28.273438 23.394531 28.261719 C 23.195312 28.246094 22.996094 28.21875 22.796875 28.179688 C 22.601562 28.140625 22.40625 28.089844 22.21875 28.027344 C 22.027344 27.960938 21.839844 27.886719 21.660156 27.796875 C 21.480469 27.710938 21.304688 27.613281 21.136719 27.5 C 20.96875 27.390625 20.808594 27.269531 20.65625 27.140625 C 20.503906 27.007812 20.363281 26.867188 20.226562 26.71875 C 20.09375 26.570312 19.96875 26.410156 19.855469 26.246094 C 19.742188 26.082031 19.636719 25.910156 19.546875 25.730469 C 19.453125 25.550781 19.375 25.367188 19.304688 25.179688 C 19.238281 24.988281 19.183594 24.796875 19.140625 24.601562 C 19.09375 24.40625 19.066406 24.207031 19.046875 24.007812 C 19.027344 23.808594 19.023438 23.605469 19.03125 23.40625 L 21.007812 25.378906 C 21.164062 25.535156 21.347656 25.59375 21.5625 25.558594 L 24.644531 25.039062 C 24.941406 24.988281 25.117188 24.8125 25.164062 24.515625 L 25.6875 21.4375 C 25.722656 21.21875 25.664062 21.035156 25.507812 20.878906 L 23.535156 18.902344 C 24.1875 18.886719 24.816406 18.996094 25.421875 19.234375 C 26.027344 19.472656 26.566406 19.820312 27.03125 20.277344 C 27.371094 20.617188 27.652344 21.003906 27.875 21.4375 C 28.097656 21.867188 28.25 22.320312 28.332031 22.796875 C 28.414062 23.273438 28.421875 23.753906 28.355469 24.230469 C 28.289062 24.710938 28.148438 25.167969 27.941406 25.605469 C 27.8125 25.878906 27.855469 26.121094 28.070312 26.332031 L 39.664062 37.925781 C 39.875 38.136719 40.117188 38.179688 40.386719 38.050781 Z M 41.261719 21.898438 L 43.992188 19.167969 L 46.824219 22 L 44.09375 24.730469 L 41.261719 24.730469 Z M 41.261719 21.898438 " fill-opacity="1" fill-rule="nonzero"/></g></svg>