<svg xmlns="http://www.w3.org/2000/svg" xmlns:xlink="http://www.w3.org/1999/xlink" width="88" zoomAndPan="magnify" viewBox="0 0 66 66" height="88" preserveAspectRatio="xMidYMid meet" version="1.0"><defs><clipPath id="2fe4c79232"><path d="M 1.6875 0.640625 L 64.3125 0.640625 L 64.3125 65.308594 L 1.6875 65.308594 Z M 1.6875 0.640625 " clip-rule="nonzero"/></clipPath><clipPath id="55d82ee5e4"><path d="M 64.199219 54.613281 C 64.199219 60.492188 59.429688 65.246094 53.5625 65.246094 L 12.4375 65.246094 C 6.554688 65.246094 1.800781 60.480469 1.800781 54.613281 L 1.800781 11.386719 C 1.800781 5.507812 6.570312 0.753906 12.4375 0.753906 L 53.5625 0.753906 C 59.445312 0.753906 64.199219 5.519531 64.199219 11.386719 Z M 64.199219 54.613281 " clip-rule="nonzero"/></clipPath><clipPath id="0e655aa498"><path d="M 1.046875 0 L 64.953125 0 L 64.953125 66 L 1.046875 66 Z M 1.046875 0 " clip-rule="nonzero"/></clipPath><clipPath id="22f385c8f2"><path d="M 53.5625 66 L 12.4375 66 C 6.160156 66 1.046875 60.886719 1.046875 54.613281 L 1.046875 11.386719 C 1.046875 5.113281 6.160156 0 12.4375 0 L 53.5625 0 C 59.839844 0 64.953125 5.113281 64.953125 11.386719 L 64.953125 54.597656 C 64.953125 60.886719 59.839844 66 53.5625 66 Z M 12.4375 1.507812 C 6.992188 1.507812 2.554688 5.941406 2.554688 11.386719 L 2.554688 54.597656 C 2.554688 60.042969 6.992188 64.480469 12.4375 64.480469 L 53.5625 64.480469 C 59.007812 64.480469 63.445312 60.042969 63.445312 54.597656 L 63.445312 11.386719 C 63.445312 5.941406 59.007812 1.507812 53.5625 1.507812 Z M 12.4375 1.507812 " clip-rule="nonzero"/></clipPath><clipPath id="709a293b50"><path d="M 18.171875 23 L 48.171875 23 L 48.171875 44 L 18.171875 44 Z M 18.171875 23 " clip-rule="nonzero"/></clipPath><clipPath id="34becadbac"><path d="M 18.171875 38 L 48.171875 38 L 48.171875 40 L 18.171875 40 Z M 18.171875 38 " clip-rule="nonzero"/></clipPath><clipPath id="bceec9bc9e"><path d="M 29 43 L 30 43 L 30 48.621094 L 29 48.621094 Z M 29 43 " clip-rule="nonzero"/></clipPath><clipPath id="44068b4ea7"><path d="M 36 43 L 38 43 L 38 48.621094 L 36 48.621094 Z M 36 43 " clip-rule="nonzero"/></clipPath><clipPath id="eae4729820"><path d="M 25 47 L 41 47 L 41 48.621094 L 25 48.621094 Z M 25 47 " clip-rule="nonzero"/></clipPath><clipPath id="a1afe1bbb1"><path d="M 23 17.121094 L 43 17.121094 L 43 27 L 23 27 Z M 23 17.121094 " clip-rule="nonzero"/></clipPath><clipPath id="22f53adedd"><path d="M 28 17.121094 L 39 17.121094 L 39 27 L 28 27 Z M 28 17.121094 " clip-rule="nonzero"/></clipPath><clipPath id="f7c23c2536"><path d="M 32 17.121094 L 34 17.121094 L 34 27 L 32 27 Z M 32 17.121094 " clip-rule="nonzero"/></clipPath></defs><g clip-path="url(#2fe4c79232)"><g clip-path="url(#55d82ee5e4)"><path fill="#004aad" d="M 1.046875 0 L 64.953125 0 L 64.953125 65.949219 L 1.046875 65.949219 Z M 1.046875 0 " fill-opacity="1" fill-rule="nonzero"/></g></g><g clip-path="url(#0e655aa498)"><g clip-path="url(#22f385c8f2)"><path fill="#004aad" d="M 1.046875 0 L 64.953125 0 L 64.953125 65.949219 L 1.046875 65.949219 Z M 1.046875 0 " fill-opacity="1" fill-rule="nonzero"/></g></g><path fill="#ffffff" d="M 30.308594 28.59375 C 30.171875 28.40625 30.007812 28.257812 29.824219 28.148438 C 29.640625 28.039062 29.449219 27.972656 29.246094 27.945312 C 29.050781 27.917969 28.816406 27.902344 28.546875 27.902344 L 26.953125 27.902344 L 26.953125 32.367188 L 28.613281 32.367188 C 29.386719 32.367188 29.945312 32.152344 30.265625 31.726562 C 30.582031 31.304688 30.742188 30.761719 30.742188 30.113281 C 30.742188 29.773438 30.703125 29.476562 30.628906 29.238281 C 30.550781 28.996094 30.441406 28.78125 30.308594 28.59375 Z M 29.488281 31.496094 C 29.34375 31.59375 29.199219 31.65625 29.058594 31.679688 C 28.910156 31.699219 28.742188 31.710938 28.554688 31.710938 L 27.683594 31.710938 L 27.683594 28.558594 L 28.535156 28.558594 C 28.734375 28.558594 28.898438 28.566406 29.023438 28.582031 C 29.144531 28.597656 29.269531 28.640625 29.398438 28.707031 C 29.523438 28.773438 29.636719 28.878906 29.734375 29.023438 C 29.832031 29.167969 29.902344 29.332031 29.9375 29.507812 C 29.976562 29.691406 29.996094 29.890625 29.996094 30.101562 C 29.996094 30.480469 29.945312 30.789062 29.847656 31.015625 C 29.753906 31.238281 29.632812 31.402344 29.488281 31.496094 Z M 29.488281 31.496094 " fill-opacity="1" fill-rule="nonzero"/><path fill="#ffffff" d="M 34.304688 31.148438 L 32.101562 27.902344 L 31.394531 27.902344 L 31.394531 32.367188 L 32.09375 32.367188 L 32.09375 29.125 L 34.277344 32.335938 L 34.296875 32.367188 L 35.007812 32.367188 L 35.007812 27.902344 L 34.304688 27.902344 Z M 34.304688 31.148438 " fill-opacity="1" fill-rule="nonzero"/><path fill="#ffffff" d="M 39.023438 30.328125 C 38.851562 30.144531 38.644531 30.011719 38.402344 29.925781 C 38.171875 29.839844 37.867188 29.757812 37.5 29.679688 C 37.101562 29.59375 36.828125 29.503906 36.691406 29.417969 C 36.566406 29.339844 36.503906 29.222656 36.503906 29.058594 C 36.503906 28.875 36.585938 28.738281 36.753906 28.640625 C 36.929688 28.539062 37.164062 28.488281 37.449219 28.488281 C 37.761719 28.488281 38.003906 28.550781 38.171875 28.679688 C 38.332031 28.804688 38.421875 28.992188 38.445312 29.25 L 38.453125 29.320312 L 39.152344 29.265625 L 39.152344 29.195312 C 39.132812 28.761719 38.964844 28.421875 38.648438 28.183594 C 38.339844 27.949219 37.925781 27.832031 37.425781 27.832031 C 36.933594 27.832031 36.535156 27.949219 36.246094 28.1875 C 35.953125 28.425781 35.804688 28.730469 35.804688 29.097656 C 35.804688 29.421875 35.925781 29.691406 36.15625 29.894531 C 36.386719 30.09375 36.757812 30.246094 37.261719 30.355469 C 37.75 30.457031 38.101562 30.5625 38.304688 30.667969 C 38.492188 30.765625 38.582031 30.910156 38.582031 31.121094 C 38.582031 31.324219 38.492188 31.480469 38.3125 31.597656 C 38.125 31.722656 37.871094 31.78125 37.558594 31.78125 C 37.226562 31.78125 36.941406 31.707031 36.707031 31.558594 C 36.476562 31.410156 36.355469 31.179688 36.332031 30.855469 L 36.324219 30.785156 L 35.628906 30.84375 L 35.632812 30.910156 C 35.648438 31.363281 35.824219 31.734375 36.144531 32.015625 C 36.464844 32.300781 36.949219 32.441406 37.582031 32.441406 C 38.085938 32.441406 38.496094 32.3125 38.8125 32.058594 C 39.128906 31.796875 39.289062 31.46875 39.289062 31.078125 C 39.289062 30.765625 39.199219 30.515625 39.023438 30.328125 Z M 39.023438 30.328125 " fill-opacity="1" fill-rule="nonzero"/><g clip-path="url(#709a293b50)"><path fill="#ffffff" d="M 45.949219 43.839844 L 20.394531 43.839844 C 19.171875 43.839844 18.171875 42.863281 18.171875 41.660156 L 18.171875 25.390625 C 18.171875 24.191406 19.171875 23.214844 20.394531 23.214844 L 24.601562 23.214844 C 24.804688 23.214844 24.96875 23.375 24.96875 23.570312 C 24.96875 23.769531 24.804688 23.929688 24.601562 23.929688 L 20.394531 23.929688 C 19.574219 23.929688 18.902344 24.585938 18.902344 25.390625 L 18.902344 41.660156 C 18.902344 42.46875 19.574219 43.125 20.394531 43.125 L 45.949219 43.125 C 46.769531 43.125 47.441406 42.46875 47.441406 41.660156 L 47.441406 25.390625 C 47.441406 24.585938 46.769531 23.929688 45.949219 23.929688 L 41.742188 23.929688 C 41.539062 23.929688 41.378906 23.769531 41.378906 23.570312 C 41.378906 23.375 41.539062 23.214844 41.742188 23.214844 L 45.949219 23.214844 C 47.171875 23.214844 48.171875 24.191406 48.171875 25.390625 L 48.171875 41.660156 C 48.171875 42.863281 47.171875 43.839844 45.949219 43.839844 Z M 45.949219 43.839844 " fill-opacity="1" fill-rule="nonzero"/></g><g clip-path="url(#34becadbac)"><path fill="#ffffff" d="M 47.804688 39.585938 L 18.539062 39.585938 C 18.335938 39.585938 18.171875 39.425781 18.171875 39.226562 C 18.171875 39.03125 18.335938 38.871094 18.539062 38.871094 L 47.804688 38.871094 C 48.007812 38.871094 48.171875 39.03125 48.171875 39.226562 C 48.171875 39.425781 48.007812 39.585938 47.804688 39.585938 Z M 47.804688 39.585938 " fill-opacity="1" fill-rule="nonzero"/></g><g clip-path="url(#bceec9bc9e)"><path fill="#ffffff" d="M 29.515625 48.464844 C 29.3125 48.464844 29.148438 48.304688 29.148438 48.105469 L 29.148438 43.480469 C 29.148438 43.285156 29.3125 43.125 29.515625 43.125 C 29.714844 43.125 29.878906 43.285156 29.878906 43.480469 L 29.878906 48.105469 C 29.878906 48.304688 29.714844 48.464844 29.515625 48.464844 Z M 29.515625 48.464844 " fill-opacity="1" fill-rule="nonzero"/></g><g clip-path="url(#44068b4ea7)"><path fill="#ffffff" d="M 36.828125 48.464844 C 36.625 48.464844 36.464844 48.304688 36.464844 48.105469 L 36.464844 43.480469 C 36.464844 43.285156 36.625 43.125 36.828125 43.125 C 37.03125 43.125 37.195312 43.285156 37.195312 43.480469 L 37.195312 48.105469 C 37.195312 48.304688 37.03125 48.464844 36.828125 48.464844 Z M 36.828125 48.464844 " fill-opacity="1" fill-rule="nonzero"/></g><g clip-path="url(#eae4729820)"><path fill="#ffffff" d="M 40.046875 48.617188 L 26.292969 48.617188 C 26.09375 48.617188 25.929688 48.457031 25.929688 48.261719 C 25.929688 48.0625 26.09375 47.902344 26.292969 47.902344 L 40.046875 47.902344 C 40.25 47.902344 40.414062 48.0625 40.414062 48.261719 C 40.414062 48.457031 40.25 48.617188 40.046875 48.617188 Z M 40.046875 48.617188 " fill-opacity="1" fill-rule="nonzero"/></g><g clip-path="url(#a1afe1bbb1)"><path fill="#ffffff" d="M 42.183594 26.671875 C 41.984375 26.671875 41.820312 26.511719 41.820312 26.3125 C 41.820312 25.515625 41.707031 24.726562 41.484375 23.96875 C 40.425781 20.359375 37.007812 17.835938 33.171875 17.835938 C 29.335938 17.835938 25.917969 20.359375 24.859375 23.96875 C 24.636719 24.726562 24.523438 25.515625 24.523438 26.3125 C 24.523438 26.511719 24.359375 26.671875 24.160156 26.671875 C 23.957031 26.671875 23.792969 26.511719 23.792969 26.3125 C 23.792969 25.449219 23.917969 24.59375 24.15625 23.769531 C 24.707031 21.890625 25.890625 20.199219 27.480469 19.003906 C 29.128906 17.773438 31.09375 17.121094 33.171875 17.121094 C 35.25 17.121094 37.214844 17.773438 38.863281 19.003906 C 40.453125 20.199219 41.636719 21.890625 42.1875 23.769531 C 42.425781 24.59375 42.550781 25.449219 42.550781 26.3125 C 42.550781 26.511719 42.386719 26.671875 42.183594 26.671875 Z M 42.183594 26.671875 " fill-opacity="1" fill-rule="nonzero"/></g><g clip-path="url(#22f53adedd)"><path fill="#ffffff" d="M 37.679688 26.671875 C 37.476562 26.671875 37.3125 26.511719 37.3125 26.3125 L 37.3125 26.296875 C 37.3125 24.945312 37.15625 23.652344 36.851562 22.449219 C 36.847656 22.445312 36.847656 22.441406 36.847656 22.4375 C 36.128906 19.640625 34.6875 17.835938 33.171875 17.835938 C 31.65625 17.835938 30.214844 19.640625 29.496094 22.4375 C 29.496094 22.441406 29.496094 22.445312 29.492188 22.449219 C 29.1875 23.652344 29.03125 24.945312 29.03125 26.296875 L 29.03125 26.3125 C 29.03125 26.511719 28.867188 26.671875 28.664062 26.671875 C 28.464844 26.671875 28.300781 26.511719 28.300781 26.3125 L 28.300781 26.296875 C 28.300781 24.890625 28.464844 23.542969 28.78125 22.285156 C 28.785156 22.28125 28.785156 22.277344 28.785156 22.273438 C 29.597656 19.09375 31.28125 17.121094 33.171875 17.121094 C 35.0625 17.121094 36.746094 19.09375 37.558594 22.273438 C 37.558594 22.277344 37.558594 22.28125 37.5625 22.285156 C 37.878906 23.542969 38.042969 24.890625 38.042969 26.296875 L 38.042969 26.3125 C 38.042969 26.511719 37.878906 26.671875 37.679688 26.671875 Z M 37.679688 26.671875 " fill-opacity="1" fill-rule="nonzero"/></g><path fill="#ffffff" d="M 42.183594 26.671875 C 41.984375 26.671875 41.820312 26.511719 41.820312 26.3125 L 41.820312 26.28125 C 41.796875 24.808594 39.953125 23.40625 37.117188 22.710938 C 37.109375 22.707031 37.101562 22.707031 37.09375 22.703125 C 35.871094 22.40625 34.550781 22.253906 33.171875 22.253906 C 31.792969 22.253906 30.472656 22.40625 29.25 22.703125 C 29.242188 22.707031 29.234375 22.707031 29.226562 22.710938 C 26.390625 23.40625 24.546875 24.808594 24.523438 26.289062 L 24.523438 26.3125 C 24.523438 26.511719 24.359375 26.671875 24.160156 26.671875 C 23.957031 26.671875 23.792969 26.511719 23.792969 26.3125 L 23.792969 26.28125 C 23.820312 24.441406 25.824219 22.8125 29.027344 22.019531 C 29.035156 22.019531 29.042969 22.015625 29.050781 22.015625 C 30.339844 21.699219 31.722656 21.539062 33.171875 21.539062 C 34.621094 21.539062 36.003906 21.699219 37.292969 22.015625 C 37.300781 22.015625 37.308594 22.019531 37.316406 22.019531 C 40.519531 22.8125 42.523438 24.441406 42.550781 26.277344 L 42.550781 26.3125 C 42.550781 26.511719 42.386719 26.671875 42.183594 26.671875 Z M 42.183594 26.671875 " fill-opacity="1" fill-rule="nonzero"/><g clip-path="url(#f7c23c2536)"><path fill="#ffffff" d="M 33.171875 26.671875 C 32.96875 26.671875 32.808594 26.511719 32.808594 26.3125 L 32.808594 17.480469 C 32.808594 17.28125 32.96875 17.121094 33.171875 17.121094 C 33.375 17.121094 33.535156 17.28125 33.535156 17.480469 L 33.535156 26.3125 C 33.535156 26.511719 33.375 26.671875 33.171875 26.671875 Z M 33.171875 26.671875 " fill-opacity="1" fill-rule="nonzero"/></g><path fill="#ffffff" d="M 42.277344 34.316406 L 24.066406 34.316406 C 23.1875 34.316406 22.46875 33.613281 22.46875 32.75 L 22.46875 27.523438 C 22.46875 26.65625 23.1875 25.957031 24.066406 25.957031 L 42.277344 25.957031 C 43.15625 25.957031 43.871094 26.660156 43.871094 27.523438 L 43.871094 32.75 C 43.871094 33.613281 43.15625 34.316406 42.277344 34.316406 Z M 24.066406 26.671875 C 23.589844 26.671875 23.199219 27.054688 23.199219 27.523438 L 23.199219 32.75 C 23.199219 33.21875 23.589844 33.601562 24.066406 33.601562 L 42.277344 33.601562 C 42.753906 33.601562 43.144531 33.21875 43.144531 32.75 L 43.144531 27.523438 C 43.144531 27.054688 42.753906 26.671875 42.277344 26.671875 Z M 24.066406 26.671875 " fill-opacity="1" fill-rule="nonzero"/></svg>