<svg xmlns="http://www.w3.org/2000/svg" xmlns:xlink="http://www.w3.org/1999/xlink" width="88" zoomAndPan="magnify" viewBox="0 0 66 66" height="88" preserveAspectRatio="xMidYMid meet" version="1.0"><defs><clipPath id="6bdacf63c5"><path d="M 1.6875 0.640625 L 64.3125 0.640625 L 64.3125 65.308594 L 1.6875 65.308594 Z M 1.6875 0.640625 " clip-rule="nonzero"/></clipPath><clipPath id="674c35e705"><path d="M 64.199219 54.613281 C 64.199219 60.492188 59.429688 65.246094 53.5625 65.246094 L 12.4375 65.246094 C 6.554688 65.246094 1.800781 60.480469 1.800781 54.613281 L 1.800781 11.386719 C 1.800781 5.507812 6.570312 0.753906 12.4375 0.753906 L 53.5625 0.753906 C 59.445312 0.753906 64.199219 5.519531 64.199219 11.386719 Z M 64.199219 54.613281 " clip-rule="nonzero"/></clipPath><clipPath id="2ea41f9a0f"><path d="M 1.046875 0 L 64.953125 0 L 64.953125 66 L 1.046875 66 Z M 1.046875 0 " clip-rule="nonzero"/></clipPath><clipPath id="2aa6af316f"><path d="M 53.5625 66 L 12.4375 66 C 6.160156 66 1.046875 60.886719 1.046875 54.613281 L 1.046875 11.386719 C 1.046875 5.113281 6.160156 0 12.4375 0 L 53.5625 0 C 59.839844 0 64.953125 5.113281 64.953125 11.386719 L 64.953125 54.597656 C 64.953125 60.886719 59.839844 66 53.5625 66 Z M 12.4375 1.507812 C 6.992188 1.507812 2.554688 5.941406 2.554688 11.386719 L 2.554688 54.597656 C 2.554688 60.042969 6.992188 64.480469 12.4375 64.480469 L 53.5625 64.480469 C 59.007812 64.480469 63.445312 60.042969 63.445312 54.597656 L 63.445312 11.386719 C 63.445312 5.941406 59.007812 1.507812 53.5625 1.507812 Z M 12.4375 1.507812 " clip-rule="nonzero"/></clipPath><clipPath id="010ac8bdbb"><path d="M 17.488281 16.921875 L 48.988281 16.921875 L 48.988281 48.421875 L 17.488281 48.421875 Z M 17.488281 16.921875 " clip-rule="nonzero"/></clipPath></defs><g clip-path="url(#6bdacf63c5)"><g clip-path="url(#674c35e705)"><path fill="#5284ff" d="M 1.046875 0 L 64.953125 0 L 64.953125 65.949219 L 1.046875 65.949219 Z M 1.046875 0 " fill-opacity="1" fill-rule="nonzero"/></g></g><g clip-path="url(#2ea41f9a0f)"><g clip-path="url(#2aa6af316f)"><path fill="#5284ff" d="M 1.046875 0 L 64.953125 0 L 64.953125 65.949219 L 1.046875 65.949219 Z M 1.046875 0 " fill-opacity="1" fill-rule="nonzero"/></g></g><g clip-path="url(#010ac8bdbb)"><path fill="#ffffff" d="M 41.601562 48.402344 L 45.039062 48.402344 C 47.21875 48.402344 48.988281 46.636719 48.988281 44.464844 L 48.988281 27.019531 C 48.988281 27.015625 48.988281 27.015625 48.988281 27.011719 C 48.988281 27.007812 48.988281 27.007812 48.988281 27.003906 L 48.976562 26.699219 C 48.964844 24.550781 47.199219 22.800781 45.042969 22.800781 L 24.234375 22.800781 L 24.234375 17.335938 C 24.234375 17.117188 24.058594 16.941406 23.839844 16.941406 L 20.929688 16.941406 C 19.054688 16.941406 17.527344 18.464844 17.527344 20.332031 L 17.527344 20.386719 L 17.539062 42.136719 C 17.550781 43.644531 18.421875 44.996094 19.753906 45.640625 L 17.644531 47.730469 C 17.53125 47.839844 17.496094 48.011719 17.558594 48.160156 C 17.617188 48.304688 17.761719 48.402344 17.921875 48.402344 L 37.929688 48.402344 C 38.144531 48.402344 38.320312 48.226562 38.320312 48.007812 L 38.320312 46.035156 L 41.207031 46.035156 L 41.207031 48.007812 C 41.207031 48.226562 41.382812 48.402344 41.601562 48.402344 Z M 48.203125 44.464844 C 48.203125 46.203125 46.785156 47.617188 45.039062 47.617188 L 41.992188 47.617188 L 41.992188 30.957031 L 45.039062 30.957031 C 46.332031 30.957031 47.480469 30.332031 48.203125 29.375 Z M 20.929688 17.726562 L 23.449219 17.726562 L 23.449219 22.800781 L 20.730469 22.800781 C 19.398438 22.800781 18.316406 21.71875 18.316406 20.386719 L 18.316406 20.332031 C 18.316406 18.898438 19.488281 17.726562 20.929688 17.726562 Z M 37.535156 47.617188 L 18.878906 47.617188 L 21.421875 45.09375 L 21.863281 45.535156 C 21.941406 45.609375 22.039062 45.648438 22.140625 45.648438 C 22.242188 45.648438 22.34375 45.609375 22.417969 45.535156 C 22.574219 45.378906 22.574219 45.132812 22.417969 44.976562 L 21.984375 44.542969 L 23.328125 43.207031 L 23.761719 43.636719 C 23.835938 43.714844 23.9375 43.753906 24.039062 43.753906 C 24.136719 43.753906 24.238281 43.714844 24.316406 43.636719 C 24.46875 43.484375 24.46875 43.234375 24.316406 43.082031 L 23.886719 42.652344 L 25.234375 41.320312 L 25.65625 41.742188 C 25.734375 41.816406 25.832031 41.855469 25.933594 41.855469 C 26.035156 41.855469 26.136719 41.816406 26.210938 41.742188 C 26.367188 41.585938 26.367188 41.339844 26.210938 41.183594 L 25.792969 40.765625 L 27.140625 39.433594 L 27.554688 39.84375 C 27.628906 39.921875 27.730469 39.960938 27.832031 39.960938 C 27.929688 39.960938 28.03125 39.921875 28.109375 39.84375 C 28.261719 39.691406 28.261719 39.441406 28.109375 39.289062 L 27.699219 38.878906 L 29.046875 37.546875 L 29.449219 37.949219 C 29.527344 38.023438 29.628906 38.0625 29.726562 38.0625 C 29.828125 38.0625 29.929688 38.023438 30.003906 37.949219 C 30.160156 37.792969 30.160156 37.542969 30.003906 37.390625 L 29.605469 36.992188 L 30.953125 35.65625 L 31.347656 36.050781 C 31.421875 36.128906 31.523438 36.164062 31.625 36.164062 C 31.726562 36.164062 31.824219 36.128906 31.902344 36.050781 C 32.054688 35.898438 32.054688 35.648438 31.902344 35.496094 L 31.511719 35.105469 L 32.859375 33.769531 L 33.242188 34.152344 C 33.320312 34.230469 33.421875 34.269531 33.519531 34.269531 C 33.621094 34.269531 33.722656 34.230469 33.800781 34.152344 C 33.953125 34 33.953125 33.75 33.800781 33.597656 L 33.417969 33.21875 L 34.765625 31.882812 L 35.140625 32.257812 C 35.214844 32.335938 35.316406 32.371094 35.417969 32.371094 C 35.519531 32.371094 35.617188 32.335938 35.695312 32.257812 C 35.847656 32.105469 35.847656 31.855469 35.695312 31.703125 L 35.324219 31.332031 L 37.535156 29.140625 Z M 38.320312 45.25 L 38.320312 28.199219 C 38.320312 28.039062 38.226562 27.894531 38.082031 27.835938 C 37.933594 27.773438 37.765625 27.808594 37.652344 27.917969 L 20.359375 45.039062 C 19.148438 44.582031 18.335938 43.433594 18.328125 42.136719 L 18.316406 22.484375 C 18.902344 23.160156 19.769531 23.589844 20.730469 23.589844 L 45.042969 23.589844 C 46.769531 23.589844 48.179688 24.988281 48.191406 26.71875 L 48.203125 27.023438 C 48.199219 28.757812 46.78125 30.167969 45.039062 30.167969 L 41.601562 30.167969 C 41.382812 30.167969 41.207031 30.34375 41.207031 30.5625 L 41.207031 45.25 Z M 38.320312 45.25 " fill-opacity="1" fill-rule="nonzero"/></g><path fill="#ffffff" d="M 34.019531 38.925781 C 33.433594 38.679688 32.785156 38.804688 32.335938 39.253906 L 29.152344 42.40625 C 28.699219 42.855469 28.566406 43.5 28.808594 44.089844 C 29.054688 44.683594 29.601562 45.050781 30.238281 45.050781 L 33.421875 45.050781 C 34.277344 45.050781 34.96875 44.355469 34.96875 43.503906 L 34.96875 40.351562 C 34.96875 39.714844 34.605469 39.167969 34.019531 38.925781 Z M 34.183594 43.503906 C 34.183594 43.921875 33.84375 44.261719 33.421875 44.261719 L 30.238281 44.261719 C 29.921875 44.261719 29.660156 44.085938 29.539062 43.792969 C 29.417969 43.496094 29.480469 43.1875 29.707031 42.964844 L 32.890625 39.8125 C 33.039062 39.664062 33.222656 39.589844 33.414062 39.589844 C 33.515625 39.589844 33.617188 39.609375 33.714844 39.648438 C 34.007812 39.773438 34.183594 40.035156 34.183594 40.351562 Z M 34.183594 43.503906 " fill-opacity="1" fill-rule="nonzero"/></svg>